<?xml version="1.0" standalone="no"?>
<!DOCTYPE svg PUBLIC "-//W3C//DTD SVG 1.1//EN" "http://www.w3.org/Graphics/SVG/1.1/DTD/svg11.dtd" >
<svg xmlns="http://www.w3.org/2000/svg">
<metadata></metadata>
<defs>
<font id="century731_btbold_italic" horiz-adv-x="1024" >
<font-face units-per-em="2048" ascent="1556" descent="-492" />
<missing-glyph horiz-adv-x="530" />
<glyph horiz-adv-x="0" />
<glyph unicode="&#xd;" horiz-adv-x="530" />
<glyph unicode=" "  horiz-adv-x="530" />
<glyph unicode="&#x09;" horiz-adv-x="530" />
<glyph unicode="&#xa0;" horiz-adv-x="530" />
<glyph unicode="!" horiz-adv-x="688" d="M92 127q0 67 47 114.5t113 47.5q67 0 114.5 -47t47.5 -115q0 -67 -47 -113.5t-115 -46.5q-66 0 -113 47t-47 113zM272 485l29 193q4 24 6 64.5t2 103.5q0 88 -13 214t-13 163q0 102 49 162.5t131 60.5q72 0 113.5 -43t41.5 -117q0 -79 -74 -235l-5 -10q-14 -29 -41 -82 q-96 -190 -117 -289l-39 -185h-70z" />
<glyph unicode="&#x22;" horiz-adv-x="717" d="M74 1346q0 54 29.5 86t80.5 32q52 0 82.5 -31.5t30.5 -84.5q0 -8 -1 -17t-3 -22l-86 -463h-43l-86 462q-3 16 -3.5 23.5t-0.5 14.5zM420 1346q0 54 29.5 86t80.5 32t81 -31.5t30 -84.5q0 -16 -0.5 -24.5t-1.5 -15.5l-86 -462h-45l-84 463q-3 15 -3.5 22.5t-0.5 14.5z" />
<glyph unicode="#" horiz-adv-x="1575" d="M23 381l86 229h272l82 234h-285l86 229h281l139 393h248l-139 -393h241l140 393h247l-139 -393h270l-86 -229h-266l-82 -234h277l-84 -229h-275l-141 -393h-248l141 393h-241l-141 -393h-248l141 393h-276zM621 608h253l84 236h-253z" />
<glyph unicode="$" horiz-adv-x="1063" d="M14 285q0 67 43.5 114t104.5 47q58 0 94.5 -35.5t36.5 -91.5q0 -39 -23 -70.5t-65 -49.5q15 -45 54.5 -70.5t98.5 -30.5l84 484q-147 106 -214.5 206t-67.5 211q0 166 115.5 273t310.5 119l37 208h90l-35 -210q139 -22 225 -94.5t86 -164.5q0 -65 -35.5 -107t-91.5 -42 q-58 0 -95.5 34t-37.5 85q0 38 22 69.5t64 53.5q-25 33 -63 52t-90 25l-80 -444q187 -130 260 -234t73 -229q0 -177 -133 -287t-351 -112l-54 -301h-90l53 307q-149 24 -237.5 102t-88.5 183zM369 1114q0 -56 31.5 -106.5t99.5 -102.5l71 395q-92 -6 -147 -57t-55 -129z M449 90q111 2 179 58t68 145q0 65 -41.5 123.5t-128.5 115.5z" />
<glyph unicode="%" horiz-adv-x="1878" d="M74 905q0 88 41 180.5t116 171.5q64 68 150.5 109t165.5 41q70 0 125 -26.5t123 -96.5q42 -17 79.5 -25t73.5 -8q107 0 205.5 51.5t181.5 149.5h88l-862 -1509h-110l759 1321q-59 -43 -122.5 -64.5t-129.5 -21.5q-41 0 -79.5 6.5t-73.5 19.5q1 -10 1.5 -21.5t0.5 -35.5 q0 -87 -23.5 -170.5t-68.5 -161.5q-70 -119 -160.5 -181.5t-194.5 -62.5q-131 0 -208.5 90t-77.5 244zM301 770q0 -51 29.5 -85t72.5 -34q64 0 130 52t120 147q41 69 62.5 146.5t21.5 154.5q0 20 -1.5 39t-4.5 39q-41 22 -77.5 47.5t-67.5 52.5q-63 -34 -116.5 -106 t-100.5 -187q-33 -78 -50.5 -147t-17.5 -119zM1063 287q0 97 40 193t114 175q64 69 149 106.5t178 37.5q123 0 188.5 -72t65.5 -207q0 -77 -23 -156.5t-69 -156.5q-72 -121 -162 -183.5t-192 -62.5q-128 0 -208.5 90.5t-80.5 235.5zM1290 156q0 -49 32.5 -81t82.5 -32 q47 0 98 34.5t101 100.5q55 75 88.5 170.5t33.5 177.5q0 87 -33 137t-89 50q-54 0 -107.5 -53t-112.5 -164q-44 -86 -69 -175.5t-25 -164.5z" />
<glyph unicode="&#x26;" horiz-adv-x="1753" d="M80 397q0 166 117.5 289.5t332.5 183.5q-11 55 -16.5 104.5t-5.5 92.5q0 169 111 275t290 106q134 0 217.5 -74t83.5 -192q0 -119 -92 -201.5t-284 -136.5q54 -153 118 -286t138 -243q83 67 133.5 139.5t50.5 118.5q0 42 -34.5 61t-111.5 19h-12l17 97h512l-17 -97h-10 q-66 0 -106.5 -21t-84.5 -81q-11 -16 -35 -51q-123 -182 -237 -279q39 -48 82.5 -71t95.5 -23q44 0 83.5 20.5t88.5 69.5l68 -59q-73 -98 -160.5 -144.5t-198.5 -46.5q-78 0 -144 23.5t-128 72.5q-88 -48 -180 -72t-193 -24q-217 0 -353 120t-136 310zM367 532 q0 -64 23 -135.5t67 -138.5q46 -73 109 -112.5t134 -39.5q37 0 77.5 12t86.5 36q-96 126 -172.5 279t-132.5 333q-96 -28 -144 -86t-48 -148zM760 1153q0 -51 9 -105.5t28 -109.5q125 41 192.5 110t67.5 156q0 65 -40 105.5t-104 40.5q-71 0 -112 -53t-41 -144z" />
<glyph unicode="'" horiz-adv-x="371" d="M74 1346q0 53 31 85.5t81 32.5q51 0 81 -31.5t30 -84.5q0 -8 -1 -17t-3 -22l-86 -463h-43l-86 462q-3 16 -3.5 23.5t-0.5 14.5z" />
<glyph unicode="(" horiz-adv-x="721" d="M84 446q0 334 184.5 603t501.5 397l-8 -53q-93 -56 -171 -163t-136 -259q-64 -170 -97.5 -362.5t-33.5 -383.5q0 -160 35.5 -269.5t113.5 -195.5l-12 -63q-184 129 -280.5 321.5t-96.5 427.5z" />
<glyph unicode=")" horiz-adv-x="721" d="M-104 -303l8 53q96 59 172.5 164t134.5 258q63 170 97 361.5t34 381.5q0 163 -35 273t-112 194l12 64q183 -129 279 -321t96 -429q0 -333 -185 -602t-501 -397z" />
<glyph unicode="*" d="M152 905q0 44 32 71.5t84 27.5q15 0 59.5 -4.5t73.5 -4.5q37 0 69.5 5t64.5 16q-78 57 -227 88q-12 3 -17 4q-41 9 -66.5 36.5t-25.5 61.5q0 50 34.5 86.5t81.5 36.5q34 0 58 -17.5t41 -54.5q2 -5 8 -18q63 -138 131 -196q1 8 1.5 17.5t0.5 26.5q0 74 -25.5 153.5 t-25.5 90.5q0 50 29.5 81.5t76.5 31.5q52 0 84.5 -30t32.5 -77q0 -29 -61.5 -122t-81.5 -177q39 15 77.5 43.5t82.5 76.5l5 5q71 78 123 78q45 0 76 -35.5t31 -85.5q0 -43 -28.5 -70.5t-73.5 -27.5q-15 0 -63.5 3t-82.5 3q-35 0 -69 -5t-66 -15q31 -27 78.5 -46.5 t128.5 -37.5q73 -16 100 -40.5t27 -68.5q0 -49 -33.5 -84t-79.5 -35q-34 0 -59 18t-43 56q-3 6 -8 17q-68 148 -129 196q-1 -2 -1 -6q-4 -31 -4 -43q0 -65 26 -148t26 -104q0 -40 -28.5 -70t-66.5 -30q-57 0 -92 27.5t-35 72.5q0 35 64 129t82 174q-46 -18 -86.5 -47.5 t-77.5 -71.5q-5 -5 -14 -15q-60 -69 -111 -69q-48 0 -78 35t-30 88z" />
<glyph unicode="+" horiz-adv-x="1706" d="M254 496v231h481v494h238v-494h479v-231h-479v-496h-238v496h-481z" />
<glyph unicode="," horiz-adv-x="530" d="M-39 -338q143 56 213 132.5t70 176.5v16q-13 -2 -26.5 -3.5t-27.5 -1.5q-71 0 -114 41.5t-43 111.5q0 65 45.5 110.5t109.5 45.5q82 0 133.5 -59t51.5 -154q0 -160 -99.5 -283t-285.5 -192z" />
<glyph unicode="-" horiz-adv-x="688" d="M6 344l47 260h543l-47 -260h-543z" />
<glyph unicode="." horiz-adv-x="530" d="M37 143q0 67 47.5 113.5t114.5 46.5t113 -46t46 -114t-46 -114.5t-113 -46.5q-66 0 -114 47.5t-48 113.5z" />
<glyph unicode="/" horiz-adv-x="569" d="M-43 -190l545 1636h108l-547 -1636h-106z" />
<glyph unicode="0" horiz-adv-x="1063" d="M63 479q0 173 43 339t125 312q78 139 180.5 208t229.5 69q170 0 261 -132t91 -378q0 -163 -35.5 -316t-105.5 -288q-88 -169 -192 -248.5t-238 -79.5q-171 0 -265 134.5t-94 379.5zM326 176q0 -64 25 -97.5t73 -33.5q65 0 102.5 70.5t81.5 318.5l97 539q14 88 21 144.5 t7 90.5q0 61 -25 92t-73 31q-66 0 -106.5 -80.5t-77.5 -296.5l-91 -510q-18 -100 -26 -164.5t-8 -103.5z" />
<glyph unicode="1" horiz-adv-x="1063" d="M51 0l17 94h16q125 0 169.5 31t63.5 143l134 757q3 22 4.5 34t1.5 20q0 53 -44.5 74t-170.5 21h-33l14 83q175 15 296.5 51t215.5 99h80l-207 -1162q-3 -20 -4.5 -34t-1.5 -23q0 -53 42.5 -73.5t164.5 -20.5h29l-19 -94h-768z" />
<glyph unicode="2" horiz-adv-x="1063" d="M25 0q0 141 64.5 262.5t266.5 317.5l11 10q185 178 227 289q22 61 33.5 126.5t11.5 129.5q0 89 -37 134.5t-110 45.5q-54 0 -99 -23.5t-78 -68.5q69 -14 105.5 -51.5t36.5 -94.5q0 -59 -41.5 -97t-108.5 -38q-69 0 -115.5 50t-46.5 126q0 117 112.5 203t270.5 86 q181 0 297.5 -102.5t116.5 -260.5q0 -78 -27 -146t-79 -122q-77 -79 -277 -206q-67 -42 -100 -64q-83 -55 -144 -112.5t-108 -125.5h332q119 0 165.5 35t75.5 135h86l-104 -438h-737z" />
<glyph unicode="3" horiz-adv-x="1063" d="M41 244q0 70 46 119t112 49q63 0 104 -40.5t41 -103.5q0 -54 -28 -89.5t-87 -55.5q24 -29 57 -43t79 -14q54 0 94 37.5t61 107.5q27 91 42.5 186t15.5 166q0 80 -34 111t-122 31h-57q-28 0 -42 11t-14 34q0 22 16 36.5t40 14.5q12 0 49 -9.5t61 -9.5q88 0 139.5 107.5 t51.5 290.5q0 70 -35 109.5t-96 39.5q-33 0 -61 -11t-56 -34q36 -23 53.5 -53t17.5 -66q0 -60 -39.5 -97.5t-103.5 -37.5q-60 0 -101.5 43t-41.5 107q0 98 91.5 162.5t235.5 64.5q181 0 296.5 -95t115.5 -241q0 -132 -91.5 -219.5t-252.5 -108.5l-4 -16q128 -27 201 -119 t73 -225q0 -175 -131.5 -295.5t-324.5 -120.5q-163 0 -267 78.5t-104 198.5z" />
<glyph unicode="4" horiz-adv-x="1063" d="M8 367l29 159l723 881h194l-161 -918h174l-23 -122h-172l-22 -121q-1 -6 -3 -17q-6 -30 -6 -41q0 -53 44 -73.5t169 -20.5l-16 -94h-741l16 94h33q122 0 165.5 31t63.5 143l19 99h-486zM129 489h385l109 607z" />
<glyph unicode="5" horiz-adv-x="1063" d="M39 240q0 78 45.5 129t114.5 51q59 0 101 -43t42 -103q0 -55 -29.5 -89t-89.5 -48q21 -34 57.5 -54t79.5 -20q58 0 97 32t67 104q32 77 53 192t21 217q0 100 -37.5 148.5t-116.5 48.5q-52 0 -108.5 -23t-124.5 -71l-45 51q38 172 66.5 331t48.5 314q98 -35 178.5 -52.5 t144.5 -17.5q65 0 141.5 17.5t165.5 52.5l29 -33q-50 -125 -156 -193.5t-249 -68.5q-42 0 -92.5 8t-106.5 23q-17 -82 -31 -157.5t-24 -137.5q53 22 108 33.5t111 11.5q173 0 283 -115.5t110 -298.5q0 -214 -145.5 -363t-358.5 -149q-155 0 -252.5 77t-97.5 196z" />
<glyph unicode="6" horiz-adv-x="1063" d="M96 504q0 168 46.5 334t129.5 297q91 141 199 206.5t248 65.5q119 0 198.5 -64.5t79.5 -156.5q0 -68 -42.5 -110t-110.5 -42q-67 0 -108.5 38.5t-41.5 101.5q0 33 21 63.5t59 52.5q-17 16 -35 22.5t-43 6.5q-90 0 -140.5 -96.5t-104.5 -417.5q35 18 68 26.5t67 8.5 q149 0 248.5 -110.5t99.5 -276.5q0 -204 -128 -345t-312 -141q-192 0 -295 139t-103 398zM350 203q0 -67 32.5 -106.5t88.5 -39.5q43 0 76.5 28t50.5 79q13 40 26.5 100.5t26.5 136.5q13 73 19 130.5t6 101.5q0 60 -31.5 95.5t-83.5 35.5q-43 0 -77 -27t-52 -78 q-10 -28 -20.5 -74t-30.5 -157q-19 -110 -25 -154.5t-6 -70.5z" />
<glyph unicode="7" horiz-adv-x="1063" d="M184 952q37 105 64.5 216.5t48.5 238.5q59 -16 120 -24.5t126 -8.5h493l-12 -69q-190 -293 -277.5 -475t-121.5 -341q-20 -92 -27 -226.5t-18 -172.5q-16 -57 -60 -92t-100 -35q-72 0 -118 50t-46 128q0 88 96 265.5t463 721.5h-328q-99 0 -140.5 -33.5t-82.5 -142.5h-80 z" />
<glyph unicode="8" horiz-adv-x="1063" d="M66 338q0 118 82 212t229 142q-87 89 -127.5 170t-40.5 166q0 158 116.5 268.5t284.5 110.5q153 0 255 -89t102 -220q0 -108 -68.5 -188.5t-206.5 -135.5q107 -96 158 -194t51 -207q0 -180 -118 -293t-308 -113q-180 0 -294.5 104t-114.5 267zM250 307q0 -109 60 -176.5 t155 -67.5q93 0 155 65.5t62 162.5q0 81 -52 156t-190 184q-92 -64 -141 -147t-49 -177zM426 1122q0 -73 47.5 -144.5t144.5 -146.5q90 52 138.5 126.5t48.5 160.5q0 91 -50.5 147t-131.5 56q-83 0 -140 -57.5t-57 -141.5z" />
<glyph unicode="9" horiz-adv-x="1063" d="M57 188q0 69 43 111.5t111 42.5q66 0 107.5 -40t41.5 -103q0 -34 -20.5 -63.5t-58.5 -51.5q16 -15 34.5 -22t42.5 -7q91 0 141.5 97t104.5 417q-36 -18 -68.5 -26t-66.5 -8q-149 0 -248.5 110.5t-99.5 276.5q0 204 128 344.5t312 140.5q192 0 294.5 -138.5t102.5 -398.5 q0 -168 -46 -334t-130 -296q-90 -141 -197.5 -206t-248.5 -65q-119 0 -199 64t-80 155zM379 739q0 -59 31 -94t84 -35q43 0 76.5 27.5t52.5 77.5q10 30 21 77t30 152q18 106 24.5 153t6.5 74q0 68 -33 107t-88 39q-44 0 -77 -28t-50 -79q-14 -40 -27.5 -100t-26.5 -137 q-12 -72 -18 -130.5t-6 -103.5z" />
<glyph unicode=":" horiz-adv-x="578" d="M31 143q0 67 46.5 113.5t112.5 46.5q68 0 115 -46t47 -114q0 -67 -47 -113t-115 -46q-66 0 -112.5 46.5t-46.5 112.5zM152 815q0 67 46.5 114.5t112.5 47.5q68 0 115 -47t47 -115q0 -67 -47 -113.5t-115 -46.5q-66 0 -112.5 47t-46.5 113z" />
<glyph unicode=";" horiz-adv-x="578" d="M-45 -338q142 56 211.5 132t69.5 177l-1 17q-13 -3 -26.5 -4.5t-26.5 -1.5q-70 0 -112.5 42t-42.5 111q0 65 45.5 110.5t109.5 45.5q82 0 133.5 -59t51.5 -154q0 -160 -99.5 -283t-285.5 -192zM152 815q0 67 46.5 114.5t112.5 47.5q68 0 115 -47t47 -115 q0 -67 -47 -113.5t-115 -46.5q-66 0 -112.5 47t-46.5 113z" />
<glyph unicode="&#x3c;" horiz-adv-x="1706" d="M264 494v233l1178 487v-253l-854 -351l854 -348v-254z" />
<glyph unicode="=" horiz-adv-x="1706" d="M254 272v230h1198v-230h-1198zM254 719v231h1198v-231h-1198z" />
<glyph unicode="&#x3e;" horiz-adv-x="1706" d="M264 8v254l854 348l-854 351v253l1178 -487v-233z" />
<glyph unicode="?" horiz-adv-x="1133" d="M170 1159q0 127 114.5 208t301.5 81q212 0 342.5 -92t130.5 -240q0 -98 -57.5 -167.5t-227.5 -157.5l-47 -25q-93 -47 -153 -117t-91 -168h-75q14 147 159 327l3 4l5 6q158 195 158 335q0 104 -50.5 157.5t-147.5 53.5q-58 0 -103 -20t-76 -58q58 -18 87.5 -54.5 t29.5 -90.5q0 -62 -44.5 -106t-106.5 -44q-66 0 -109 47.5t-43 120.5zM236 127q0 67 46.5 114.5t112.5 47.5q68 0 115 -47t47 -115q0 -67 -47 -113.5t-115 -46.5q-66 0 -112.5 47t-46.5 113z" />
<glyph unicode="@" horiz-adv-x="2019" d="M129 539q0 202 87.5 381t252.5 313q137 112 302.5 169.5t350.5 57.5q349 0 559.5 -189.5t210.5 -504.5q0 -164 -59 -302t-172 -239q-59 -52 -128 -80t-140 -28q-98 0 -156.5 52.5t-65.5 143.5q-60 -95 -130 -143.5t-148 -48.5q-156 0 -241 90t-85 256q0 116 50.5 223.5 t146.5 196.5q68 62 150 95.5t167 33.5q96 0 150 -44t67 -132l48 157h208l-174 -624q-8 -34 -11 -53t-3 -35q0 -45 19 -72t51 -27q30 0 84.5 27.5t101.5 69.5q97 87 148 211.5t51 273.5q0 121 -34 219.5t-101 171.5q-99 109 -235.5 166t-299.5 57q-139 0 -265 -39.5 t-233 -117.5q-166 -120 -255 -303t-89 -404q0 -336 205 -531.5t557 -195.5q163 0 315 49.5t316 157.5l41 -57q-151 -113 -321 -170.5t-351 -57.5q-432 0 -687 224.5t-255 601.5zM801 352q0 -71 32.5 -113t86.5 -42q59 0 115 60.5t108 180.5q42 99 67 198.5t25 166.5 t-27.5 103t-79.5 36q-60 0 -110 -44t-98 -140q-57 -112 -88 -218.5t-31 -187.5z" />
<glyph unicode="A" horiz-adv-x="1536" d="M-141 0l18 100q70 6 119 43.5t115 147.5l665 1122h301l205 -1143q19 -103 56.5 -131.5t146.5 -38.5l-17 -100h-757l18 100q111 6 147.5 29.5t36.5 83.5q0 9 -1 20t-3 23l-35 217h-520l-104 -184q-17 -31 -25 -53.5t-8 -40.5q0 -42 41.5 -63.5t144.5 -31.5l-16 -100h-528z M418 580h438l-102 579z" />
<glyph unicode="B" horiz-adv-x="1546" d="M-51 0l16 100q113 4 154 35t59 139l158 894q3 20 4.5 34t1.5 23q0 50 -37.5 70t-142.5 24l16 94h787q235 0 362 -85t127 -243q0 -143 -117 -230.5t-331 -102.5l-2 -13q190 -12 295.5 -102t105.5 -240q0 -189 -149 -293t-420 -104h-887zM543 197q0 -48 40 -68t134 -20 q158 0 229.5 87.5t71.5 282.5q0 112 -58 164.5t-182 52.5h-151l-74 -415q-6 -37 -8 -55.5t-2 -28.5zM647 799h154q144 0 211 78t67 247q0 95 -46 141t-142 46q-85 0 -124.5 -31t-53.5 -111z" />
<glyph unicode="C" horiz-adv-x="1489" d="M80 567q0 182 59.5 338t175.5 279q124 129 272.5 195.5t315.5 66.5q115 0 251.5 -48t160.5 -48q18 0 35 20.5t41 73.5h94l-60 -526l-90 8q-42 198 -148.5 307.5t-256.5 109.5q-107 0 -189 -60t-133 -175q-61 -139 -98 -319.5t-37 -339.5q0 -170 77.5 -260.5t221.5 -90.5 q112 0 224 63.5t233 194.5l82 -75q-132 -160 -287.5 -237t-345.5 -77q-275 0 -436.5 162.5t-161.5 437.5z" />
<glyph unicode="D" horiz-adv-x="1677" d="M-51 0l16 100q113 4 154 35t59 139l158 894q3 20 4.5 34t1.5 23q0 50 -37.5 70t-142.5 24l16 94h641q389 0 579.5 -157.5t190.5 -479.5q0 -175 -66.5 -322t-195.5 -257q-117 -101 -271 -149t-360 -48h-747zM551 193q0 -52 41 -72.5t153 -20.5q109 0 189 58.5t129 173.5 q56 135 87.5 292t31.5 304q0 189 -75 288t-218 99q-82 0 -118 -32t-56 -138l-158 -895q-3 -20 -4.5 -34t-1.5 -23z" />
<glyph unicode="E" horiz-adv-x="1460" d="M-51 0l16 100q113 4 154 35t59 139l158 894q3 20 4.5 34t1.5 23q0 50 -37.5 70t-142.5 24l16 94h1016q57 0 105.5 3.5t90.5 10.5l-47 -483l-104 6q-10 209 -80.5 282t-269.5 73q-93 0 -127.5 -22.5t-44.5 -80.5l-72 -405h27q102 0 156.5 51.5t82.5 175.5h109 q-37 -175 -64.5 -327t-46.5 -283h-100q1 33 2.5 72.5t1.5 45.5q0 84 -40 121t-130 37h-16l-74 -414q-4 -23 -6 -43.5t-2 -33.5q0 -47 29.5 -65.5t105.5 -18.5q206 0 320.5 78t185.5 264h112l-108 -457h-1241z" />
<glyph unicode="F" horiz-adv-x="1399" d="M-51 0l16 100q113 4 154 35t59 139l158 894q3 20 4.5 34t1.5 23q0 50 -37.5 70t-142.5 24l16 94h1024q58 0 107.5 3.5t91.5 10.5l-49 -483l-103 6q-10 210 -80 282.5t-270 72.5q-92 0 -127 -22.5t-45 -80.5l-72 -405h27q101 0 155 51t83 176h108q-34 -160 -61 -313 t-47 -297h-103q2 33 3 62.5t1 55.5q0 84 -39 121t-129 37h-16l-80 -440q-3 -18 -4.5 -32.5t-1.5 -24.5q0 -51 39 -71t153 -22l-16 -100h-778z" />
<glyph unicode="G" horiz-adv-x="1655" d="M80 584q0 169 60.5 323.5t174.5 276.5q124 129 272.5 195.5t315.5 66.5q115 0 251.5 -48t160.5 -48q18 0 35 20.5t41 73.5h94l-55 -492l-105 11q-45 182 -147 281t-244 99q-109 0 -191.5 -59t-134.5 -176q-61 -138 -98 -316t-37 -337q0 -173 71.5 -267t203.5 -94 q140 0 225.5 103.5t85.5 271.5q0 51 -34 72t-130 26l16 92h707l-17 -92q-98 -8 -138.5 -36t-59.5 -105q-13 -51 -33.5 -169.5t-44.5 -289.5h-96q-6 66 -19.5 99.5t-33.5 33.5q-13 0 -34.5 -7t-61.5 -25l-12 -5q-224 -96 -378 -96q-282 0 -446 166t-164 451z" />
<glyph unicode="H" horiz-adv-x="1726" d="M-51 0l16 100q113 4 154 35t59 139l158 894q3 20 4.5 34t1.5 23q0 50 -37.5 70t-142.5 24l16 94h758l-17 -94q-105 -3 -145.5 -34t-58.5 -140l-60 -348h445l67 370q3 17 4.5 32t2.5 26q0 47 -31.5 67t-120.5 27l16 94h738l-17 -94q-109 -3 -149.5 -32.5t-61.5 -141.5 l-160 -896q-3 -20 -4.5 -34t-1.5 -22q0 -50 37 -69.5t143 -23.5l-18 -100h-758l19 100q105 3 145.5 34.5t59.5 139.5l71 414h-444l-80 -438q-3 -18 -4.5 -32.5t-1.5 -24.5q0 -47 31 -66.5t120 -26.5l-18 -100h-735z" />
<glyph unicode="I" horiz-adv-x="909" d="M-47 0l18 100q111 3 152 34t59 140l158 893q3 20 4.5 34t1.5 24q0 50 -37.5 70.5t-140.5 23.5l16 94h772l-16 -94q-111 -3 -152 -33t-61 -141l-158 -896q-3 -20 -4.5 -34t-1.5 -22q0 -50 36 -69.5t142 -23.5l-16 -100h-772z" />
<glyph unicode="J" horiz-adv-x="1114" d="M-45 246q0 84 50.5 140t125.5 56q64 0 107 -44t43 -109q0 -68 -55.5 -108t-55.5 -42q0 -19 29.5 -39t64.5 -20q66 0 103.5 63.5t74.5 272.5l134 752q3 20 4.5 34t1.5 23q0 50 -37.5 70t-142.5 24l16 94h772l-17 -94q-111 -3 -152.5 -34.5t-59.5 -139.5l-103 -580l-2 -11 q-51 -301 -143 -419q-66 -84 -162 -126t-223 -42q-166 0 -269.5 78.5t-103.5 200.5z" />
<glyph unicode="K" horiz-adv-x="1677" d="M-51 0l16 100q113 4 154 35t59 139l158 894q3 20 4.5 34t1.5 23q0 50 -37.5 70t-142.5 24l16 94h758l-17 -94q-105 -3 -145 -33.5t-59 -140.5l-78 -449l584 457q32 25 47.5 49t15.5 49q0 38 -35 53t-131 15l17 94h616l-16 -94h-4q-56 0 -116.5 -29t-168.5 -112l-404 -312 l334 -590q31 -52 61.5 -84t69.5 -53q24 -13 62 -22.5t92 -16.5l-19 -100h-790l16 100q67 5 98 24t31 54q0 21 -11 52t-34 73l-192 342l-154 -117l-49 -278q-3 -20 -4.5 -34t-1.5 -23q0 -47 31 -66.5t120 -26.5l-18 -100h-735z" />
<glyph unicode="L" horiz-adv-x="1442" d="M-51 0l16 100q113 4 154 35t59 139l158 894q3 20 4.5 34t1.5 23q0 50 -37.5 70t-142.5 24l16 94h772l-16 -94q-110 -3 -150 -32.5t-61 -141.5l-154 -869q-5 -31 -7.5 -50.5t-2.5 -26.5q0 -47 30 -65.5t105 -18.5q239 0 367 95t205 329h102l-129 -539h-1290z" />
<glyph unicode="M" horiz-adv-x="2046" d="M-51 0l16 100q101 12 152 63t69 161l150 844q3 19 4.5 34t1.5 23q0 49 -37 69.5t-141 24.5l16 94h668l123 -825l440 825h680l-17 -94q-110 -3 -151 -33t-61 -141l-158 -895q-3 -20 -4.5 -34t-1.5 -23q0 -50 35.5 -69.5t144.5 -23.5l-18 -100h-760l18 100q111 3 152 34 t59 140l184 1049h-24l-719 -1323h-65l-201 1323h-27l-168 -958q-6 -39 -9 -68.5t-3 -50.5q0 -69 43.5 -102.5t144.5 -43.5l-18 -100h-518z" />
<glyph unicode="N" horiz-adv-x="1614" d="M-51 0l16 100q101 12 152 63t69 161l150 844q3 19 4.5 34t1.5 23q0 49 -37 69.5t-141 24.5l16 94h504l533 -934l100 574q6 39 9 68t3 50q0 70 -43.5 104t-144.5 44l16 94h522l-16 -94q-100 -12 -150.5 -63t-70.5 -162l-197 -1094h-186l-619 1087l-129 -722 q-6 -39 -9 -68.5t-3 -50.5q0 -69 43.5 -102.5t144.5 -43.5l-18 -100h-520z" />
<glyph unicode="O" horiz-adv-x="1587" d="M80 567q0 182 59.5 338t175.5 279q122 129 273 196.5t319 67.5q274 0 438 -168t164 -449q0 -163 -57.5 -314.5t-167.5 -274.5q-119 -134 -274.5 -205.5t-329.5 -71.5q-274 0 -437 163.5t-163 438.5zM465 379q0 -148 62 -228.5t175 -80.5q98 0 176.5 69.5t120.5 194.5 q23 63 43.5 150.5t44.5 224.5q22 119 30.5 195.5t8.5 139.5q0 150 -60 230t-173 80q-120 0 -199.5 -87t-130.5 -274q-46 -170 -72 -335t-26 -279z" />
<glyph unicode="P" horiz-adv-x="1432" d="M-51 0l16 100q113 4 154 35t59 139l158 894q3 20 4.5 34t1.5 23q0 50 -37.5 70t-142.5 24l16 94h778q210 0 331.5 -100t121.5 -271q0 -195 -145 -310.5t-394 -115.5h-245l-68 -366q-3 -18 -4.5 -32.5t-1.5 -24.5q0 -51 38 -71t146 -22l-16 -100h-770zM643 723h105 q76 0 124.5 19t77.5 61q36 50 58 133t22 170q0 99 -40.5 150t-119.5 51q-65 0 -100 -31.5t-47 -101.5z" />
<glyph unicode="Q" horiz-adv-x="1587" d="M80 584q0 169 60.5 323.5t174.5 276.5q122 129 273 196.5t319 67.5q275 0 438.5 -168t163.5 -451q0 -262 -137 -475t-376 -323q3 -97 51 -152t129 -55q64 0 125.5 41t119.5 123l74 -49q-81 -156 -184.5 -233t-229.5 -77q-144 0 -229.5 89t-85.5 239v14h-5q-57 -4 -83 -4 q-278 0 -438 165t-160 452zM465 371q49 67 111.5 102t134.5 35q103 0 171 -65t85 -181q46 78 103 355l5 26q26 134 38.5 232.5t12.5 168.5q0 150 -60 230t-173 80q-186 0 -287 -231.5t-141 -751.5zM514 225q0 -70 51 -112.5t135 -42.5q21 0 44 4.5t49 14.5q17 49 25.5 87 t8.5 68q0 67 -40.5 109t-104.5 42q-71 0 -119.5 -48.5t-48.5 -121.5z" />
<glyph unicode="R" horiz-adv-x="1540" d="M-51 0l16 100q113 4 154 35t59 139l158 894q3 20 4.5 34t1.5 23q0 50 -37.5 70t-142.5 24l16 94h817q210 0 331.5 -85.5t121.5 -229.5q0 -166 -141.5 -264t-399.5 -111l-2 -12q129 -18 203.5 -77.5t93.5 -158.5q8 -46 8 -118.5t4 -97.5q5 -38 24 -59.5t48 -21.5 q36 0 60.5 31t34.5 88h89q-10 -161 -94.5 -246.5t-230.5 -85.5q-137 0 -215 77.5t-78 213.5q0 42 8 121t8 115q0 93 -57.5 141t-175.5 53l-78 -436q-3 -20 -4.5 -34t-1.5 -23q0 -51 38 -71t146 -22l-16 -100h-770zM653 788h105q153 0 232 79.5t79 232.5q0 106 -47.5 156.5 t-147.5 50.5q-67 0 -103 -32t-48 -101z" />
<glyph unicode="S" horiz-adv-x="1251" d="M6 -33q32 138 55.5 269.5t38.5 257.5h99q31 -194 132 -301t251 -107q102 0 169.5 58t67.5 143q0 125 -211 248l-20 12l-129 76q-110 64 -169 163t-59 220q0 195 126.5 318.5t326.5 123.5q104 0 216 -44t120 -44q19 0 39.5 21t44.5 65h98q-21 -109 -40 -227t-36 -248h-92 q-30 172 -120.5 268t-223.5 96q-89 0 -146 -51t-57 -129q0 -71 48 -129.5t153 -114.5l119 -61q146 -77 217.5 -181.5t71.5 -242.5q0 -197 -140 -329t-350 -132q-73 0 -149 20t-162 62l-16 8q-52 27 -78 27t-48.5 -28t-43.5 -87h-103z" />
<glyph unicode="T" horiz-adv-x="1395" d="M84 938l104 492q84 -9 149 -13t116 -4h700q79 0 146 4t126 13l-57 -496h-102v20q0 189 -65.5 270t-215.5 81l-186 -1055q-3 -19 -4.5 -34t-1.5 -23q0 -53 41.5 -73t164.5 -20l-18 -100h-811l18 100q120 0 163.5 30.5t64.5 143.5l182 1031h-31q-137 0 -221.5 -81 t-159.5 -290z" />
<glyph unicode="U" horiz-adv-x="1583" d="M150 1319l16 94h768l-17 -94q-111 -3 -152.5 -34t-59.5 -140l-123 -696q-5 -27 -8 -54t-3 -53q0 -107 65.5 -166t182.5 -59q151 0 245 91.5t126 270.5l100 574q6 39 9.5 68t3.5 50q0 70 -44 104t-145 44l16 94h523l-17 -94q-100 -12 -151 -63.5t-70 -161.5l-100 -576 q-50 -284 -201 -418.5t-422 -134.5q-242 0 -370.5 103.5t-128.5 298.5q0 33 4 73.5t12 87.5l113 640q2 18 4 33.5t2 23.5q0 49 -38 70t-140 24z" />
<glyph unicode="V" horiz-adv-x="1421" d="M47 1319l16 94h785l-17 -94q-124 -7 -162 -30.5t-38 -84.5q0 -18 0.5 -27t1.5 -16l117 -766l407 733q17 31 25 53.5t8 41.5q0 42 -42.5 64t-143.5 32l16 94h518l-16 -94q-70 -4 -123.5 -47.5t-110.5 -145.5l-645 -1159h-194l-185 1180q-15 101 -55 132t-162 40z" />
<glyph unicode="W" horiz-adv-x="1886" d="M51 1319l17 94h688l-17 -94q-82 -7 -113.5 -30.5t-31.5 -76.5q0 -15 0.5 -27t1.5 -24l57 -649l301 670q-6 71 -34 99.5t-103 37.5l17 94h641l-17 -94q-85 -5 -116 -28t-31 -79q0 -21 0.5 -32t1.5 -19l49 -645l297 612q11 25 17.5 50t6.5 45q0 44 -32 66t-113 30l16 94 h461l-19 -94q-70 -8 -116 -47t-96 -146l-557 -1159h-178l-78 991l-445 -991h-176l-114 1179q-10 98 -46 131.5t-139 41.5z" />
<glyph unicode="X" horiz-adv-x="1534" d="M-154 0l17 100q83 5 173 55t191 148l365 356l-279 488q-60 105 -113 136.5t-147 35.5l17 94h817l-17 -94q-86 -3 -119.5 -20.5t-33.5 -57.5q0 -19 10 -49t27 -59l116 -207l207 202q38 37 55 63.5t17 49.5q0 35 -33.5 53t-111.5 25l16 94h569l-16 -94q-80 -8 -153.5 -49.5 t-176.5 -143.5l-313 -305l317 -551q52 -90 115 -127.5t170 -42.5l-19 -100h-878l18 100q99 5 141 26t42 64q0 21 -7.5 47t-19.5 46l-156 270l-241 -234q-40 -38 -61 -71.5t-21 -59.5q0 -41 37.5 -61t128.5 -27l-19 -100h-631z" />
<glyph unicode="Y" horiz-adv-x="1446" d="M33 1319l16 94h809l-16 -94q-103 0 -146 -20t-43 -66q0 -17 7 -44.5t18 -56.5l162 -442l317 447q19 26 27 46.5t8 39.5q0 47 -40.5 69t-141.5 27l16 94h551l-17 -94q-65 -2 -124.5 -40.5t-112.5 -113.5l-432 -598l-58 -318q-3 -20 -4.5 -34t-1.5 -22q0 -51 39.5 -71 t155.5 -22l-16 -100h-797l16 100q120 2 162.5 32t63.5 142l47 265l-203 553q-50 135 -105.5 181t-156.5 46z" />
<glyph unicode="Z" horiz-adv-x="1421" d="M-16 0l12 70l907 1235h-149q-216 0 -317 -69.5t-163 -250.5h-110l98 442q78 -7 156.5 -10.5t156.5 -3.5h549q72 0 141.5 3.5t137.5 10.5l-12 -75l-912 -1237h187q217 0 325.5 77t184.5 279h112l-102 -471h-1202z" />
<glyph unicode="[" horiz-adv-x="721" d="M-33 -276l299 1689h545l-12 -76h-303l-273 -1538h303l-12 -75h-547z" />
<glyph unicode="\" horiz-adv-x="569" d="M137 1446h103l192 -1636h-100z" />
<glyph unicode="]" horiz-adv-x="721" d="M-141 -276l14 75h303l270 1538h-303l13 76h546l-296 -1689h-547z" />
<glyph unicode="^" horiz-adv-x="2048" d="M412 897l481 565h260l479 -565h-121l-489 348l-490 -348h-120z" />
<glyph unicode="_" d="M0 -244h1024v-239h-1024v239z" />
<glyph unicode="`" d="M315 1364q0 37 24 61.5t60 24.5q26 0 49 -14.5t50 -46.5l245 -302h-104l-260 193q-35 26 -49.5 45.5t-14.5 38.5z" />
<glyph unicode="a" horiz-adv-x="1239" d="M35 373q0 92 26.5 186t77.5 182q65 112 156 173t192 61q82 0 141 -35t99 -106l23 114h274l-107 -621q-9 -52 -13.5 -89t-4.5 -58q0 -29 11 -45t30 -16q36 0 74.5 53t85.5 170l80 -33q-71 -178 -150.5 -258t-185.5 -80q-84 0 -139.5 47t-73.5 134q-50 -90 -121 -135.5 t-160 -45.5q-139 0 -227 111t-88 291zM346 262q0 -80 27 -123t78 -43q50 0 90 47t75 148q34 95 53 195.5t19 187.5q0 93 -30.5 141.5t-90.5 48.5q-48 0 -85.5 -49.5t-69.5 -157.5q-31 -100 -48.5 -206t-17.5 -189z" />
<glyph unicode="b" horiz-adv-x="1114" d="M25 1372l12 68q137 3 266 16t252 37l-109 -627q42 54 101.5 83.5t124.5 29.5q141 0 229 -108t88 -283q0 -105 -30 -201.5t-89 -179.5q-79 -113 -195 -174.5t-251 -61.5q-168 0 -260 96t-92 271q0 29 4.5 69.5t13.5 91.5l123 695q3 14 4.5 29.5t1.5 36.5q0 59 -37.5 82 t-156.5 30zM338 221q0 -76 30 -120t83 -44q50 0 86.5 49t70.5 164q34 114 53 225.5t19 194.5q0 84 -26 126t-79 42q-49 0 -87.5 -46.5t-75.5 -152.5q-36 -99 -55 -211t-19 -227z" />
<glyph unicode="c" horiz-adv-x="981" d="M27 430q0 101 43 200t120 177q82 82 182.5 126t205.5 44q138 0 235.5 -72t97.5 -170q0 -64 -42 -107.5t-105 -43.5q-59 0 -98 35.5t-39 89.5q0 45 26.5 77.5t77.5 47.5q-30 30 -61.5 44.5t-65.5 14.5q-46 0 -84 -25.5t-69 -76.5q-49 -83 -81 -214t-32 -253 q0 -118 45 -181t129 -63q65 0 129.5 37.5t128.5 111.5l64 -47q-78 -105 -175 -158t-213 -53q-180 0 -299.5 130.5t-119.5 328.5z" />
<glyph unicode="d" horiz-adv-x="1241" d="M35 373q0 92 26.5 186t77.5 182q65 112 156 173t192 61q79 0 136 -31t94 -94l61 343q3 15 4.5 30.5t1.5 36.5q0 59 -37.5 82t-156.5 31l12 66q137 4 266 17t252 37l-203 -1166q-9 -57 -13.5 -93.5t-4.5 -53.5q0 -29 11 -45t30 -16q36 0 74.5 53t85.5 170l80 -33 q-71 -178 -150.5 -258t-185.5 -80q-84 0 -139.5 47t-73.5 134q-50 -90 -121 -135.5t-160 -45.5q-139 0 -227 111t-88 291zM346 262q0 -80 27 -123t78 -43q50 0 90 47t75 148q33 90 50.5 191.5t17.5 195.5q0 93 -29.5 139.5t-87.5 46.5q-48 0 -85.5 -49.5t-69.5 -157.5 q-31 -100 -48.5 -206t-17.5 -189z" />
<glyph unicode="e" horiz-adv-x="1044" d="M25 379q0 120 50.5 233.5t141.5 198.5q85 80 195 123t231 43q150 0 242 -66t92 -170q0 -148 -158.5 -238t-476.5 -122q-1 -10 -1.5 -21.5t-0.5 -33.5q0 -114 49 -177t137 -63q70 0 138 35t131 102l61 -51q-81 -100 -183.5 -150.5t-223.5 -50.5q-194 0 -309 111.5 t-115 296.5zM352 465q175 15 276 98.5t101 210.5q0 58 -30 90.5t-85 32.5q-86 0 -160.5 -120t-101.5 -312z" />
<glyph unicode="f" horiz-adv-x="750" d="M-311 -205q0 55 36.5 92t90.5 37q49 0 82.5 -32.5t33.5 -79.5q0 -30 -13 -55.5t-42 -51.5q19 -10 35 -15t29 -5q58 0 98.5 111.5t101.5 484.5l97 591h-205l12 76h209q56 267 176.5 406t296.5 139q111 0 184.5 -59t73.5 -144q0 -56 -36.5 -93.5t-92.5 -37.5q-51 0 -85 33 t-34 82q0 29 14 55.5t42 50.5q-19 17 -36 24t-38 7q-74 0 -116 -100t-73 -363h234l-12 -76h-230l-8 -58q-120 -850 -254 -1043q-60 -85 -142 -129.5t-177 -44.5q-107 0 -179.5 58t-72.5 140z" />
<glyph unicode="g" horiz-adv-x="1128" d="M10 -203q0 59 39.5 98t97.5 39q55 0 91 -32t36 -78q0 -32 -10.5 -55.5t-31.5 -41.5q19 -22 45 -33t59 -11q107 0 173 106t99 334q-57 -63 -118.5 -94t-131.5 -31q-140 0 -228.5 108.5t-88.5 282.5q0 91 27 183.5t77 177.5q65 107 157 167t192 60q82 0 141.5 -34.5 t97.5 -104.5l23 110h274l-141 -815q-48 -274 -182.5 -406.5t-366.5 -132.5q-153 0 -241.5 55t-88.5 148zM362 293q0 -80 28 -123t79 -43q88 0 155.5 162.5t67.5 388.5q0 95 -30 141.5t-91 46.5q-46 0 -81 -47t-68 -153q-28 -95 -44 -193.5t-16 -179.5z" />
<glyph unicode="h" horiz-adv-x="1253" d="M39 0l211 1194q4 19 6 35.5t2 30.5q0 59 -37.5 82t-156.5 30l10 68q137 3 267 16.5t253 36.5l-125 -709q57 91 135 138t170 47q113 0 175.5 -69t62.5 -193q0 -38 -7.5 -81.5t-31.5 -129.5l-51 -183q-15 -52 -21 -81.5t-6 -45.5q0 -28 16.5 -45.5t42.5 -17.5q44 0 83 56 t81 181l80 -36q-51 -176 -133 -261.5t-201 -85.5q-111 0 -173 68t-62 188q0 54 12.5 126.5t40.5 172.5l35 125q12 42 17 72.5t5 54.5q0 29 -18 48.5t-45 19.5q-112 0 -195.5 -204.5t-150.5 -647.5h-291z" />
<glyph unicode="i" horiz-adv-x="782" d="M-12 641q70 177 148.5 255.5t182.5 78.5q103 0 160.5 -70t57.5 -194q0 -44 -9 -96.5t-28 -125.5l-47 -176q-10 -35 -15.5 -66t-5.5 -54q0 -33 14 -51.5t39 -18.5q42 0 81.5 57.5t82.5 179.5l76 -36q-48 -174 -130 -260.5t-200 -86.5q-111 0 -174 68t-63 188q0 80 47 267 q5 21 8 32l37 146l2 9q16 64 16 85q0 26 -11.5 42.5t-29.5 16.5q-35 0 -70 -47.5t-89 -175.5zM291 1329q0 67 48 114.5t116 47.5q69 0 115 -46.5t46 -115.5q0 -68 -47 -116t-114 -48q-68 0 -116 48.5t-48 115.5z" />
<glyph unicode="j" horiz-adv-x="717" d="M-258 -195q0 66 41.5 111t101.5 45q50 0 82.5 -35t32.5 -88q0 -36 -22.5 -65t-58.5 -39q1 -27 17.5 -41.5t45.5 -14.5q84 0 138 131t124 560l49 309q5 28 7.5 51.5t2.5 40.5q0 29 -10.5 45t-30.5 16q-36 0 -71 -47.5t-89 -175.5l-79 33q70 177 150 256.5t185 79.5 t164.5 -66t59.5 -184q0 -33 -5.5 -81t-23.5 -157l-33 -196q-72 -425 -178.5 -563t-323.5 -138q-124 0 -200 59.5t-76 153.5zM297 1329q0 68 48 116t116 48q69 0 115.5 -47t46.5 -117q0 -67 -47.5 -114.5t-114.5 -47.5q-68 0 -116 47.5t-48 114.5z" />
<glyph unicode="k" horiz-adv-x="1247" d="M39 0l211 1194q4 19 6 35.5t2 30.5q0 59 -37.5 82t-156.5 30l10 68q137 3 267 16.5t253 36.5l-168 -936h33q81 0 133 29.5t102 105.5q16 24 49 97t64 106q35 40 76.5 60t89.5 20q77 0 131.5 -49t54.5 -119q0 -58 -36.5 -95.5t-92.5 -37.5q-46 0 -77 30t-31 74 q0 21 7.5 38.5t22.5 31.5q-8 5 -16.5 7.5t-17.5 2.5q-39 0 -90 -111q-16 -34 -25 -53q-33 -66 -79.5 -107t-113.5 -63q100 -12 162.5 -52.5t95.5 -113.5q20 -42 29.5 -104t15.5 -74q13 -25 28 -36t36 -11q42 0 71 38.5t48 119.5l75 -17q-27 -142 -108.5 -222.5t-198.5 -80.5 q-116 0 -172 70.5t-65 232.5q-9 123 -43 158t-125 35q-7 0 -23.5 -1t-25.5 -1l-80 -465h-291z" />
<glyph unicode="l" horiz-adv-x="692" d="M37 1373l12 66q135 4 266.5 17.5t257.5 36.5l-213 -1180q-2 -14 -6 -38q-12 -69 -12 -87q0 -30 14 -47.5t37 -17.5q42 0 83 60t79 177l80 -36q-51 -176 -132.5 -261.5t-199.5 -85.5q-112 0 -176 70t-64 193q0 25 4.5 60t16.5 99l141 794q3 15 4.5 30t1.5 37 q0 59 -37.5 82t-156.5 31z" />
<glyph unicode="m" horiz-adv-x="1847" d="M-18 641q66 169 143.5 248.5t175.5 79.5q97 0 146 -61t59 -193q60 125 146 189.5t194 64.5q89 0 137.5 -61.5t48.5 -174.5v-18q59 124 145 189t191 65q110 0 172 -69.5t62 -192.5q0 -42 -8 -89t-29 -122l-52 -183q-14 -52 -20 -81.5t-6 -45.5q0 -29 15.5 -46t41.5 -17 q44 0 83 56t81 181l82 -36q-51 -174 -133 -260.5t-197 -86.5q-109 0 -171 68.5t-62 187.5q0 52 12.5 122t42.5 177l33 125q12 42 17 72.5t5 54.5q0 29 -18 48.5t-45 19.5q-112 0 -194.5 -203.5t-149.5 -648.5h-279l113 604q16 88 20 121t4 53q0 38 -13 56t-40 18 q-101 0 -186.5 -219t-145.5 -633h-284l78 393l8 43q57 277 57 334q0 29 -10.5 45t-30.5 16q-35 0 -70 -47.5t-90 -175.5z" />
<glyph unicode="n" horiz-adv-x="1335" d="M-18 641q67 170 145 250t178 80q99 0 149.5 -62.5t59.5 -193.5q60 125 146.5 190.5t193.5 65.5q113 0 175.5 -69.5t62.5 -194.5q0 -42 -8 -89t-29 -122l-51 -183q-15 -52 -21 -81.5t-6 -45.5q0 -29 15.5 -46t41.5 -17q44 0 83 56t81 181l80 -36q-51 -176 -132.5 -261.5 t-199.5 -85.5q-111 0 -174 68t-63 188q0 54 12.5 126.5t40.5 172.5l35 125q11 41 16.5 72t5.5 55q0 29 -18 48.5t-45 19.5q-111 0 -193 -203t-151 -649h-293l78 393l8 43q57 277 57 334q0 29 -10.5 45t-30.5 16q-35 0 -70 -47.5t-90 -175.5z" />
<glyph unicode="o" horiz-adv-x="1114" d="M23 395q0 111 41 211t124 189q84 89 188 136.5t218 47.5q187 0 300.5 -114t113.5 -302q0 -121 -46.5 -228t-136.5 -196q-82 -82 -182.5 -125t-210.5 -43q-184 0 -296.5 116.5t-112.5 307.5zM334 215q0 -75 28.5 -115.5t81.5 -40.5q48 0 88 36t64 100q17 44 34 111.5 t36 164.5q18 91 27 165.5t9 123.5q0 64 -30 102.5t-80 38.5q-54 0 -94 -41.5t-68 -128.5q-45 -137 -70.5 -277.5t-25.5 -238.5z" />
<glyph unicode="p" horiz-adv-x="1237" d="M-80 -403l12 77q87 0 118.5 25t47.5 119l140 805q9 59 13.5 94t4.5 53q0 29 -11 45t-30 16q-36 0 -71 -47.5t-89 -175.5l-80 33q69 174 147.5 256t176.5 82q90 0 143.5 -58t53.5 -155q0 -14 -0.5 -21t-1.5 -13q51 120 130 183.5t179 63.5q138 0 223.5 -106.5t85.5 -282.5 q0 -266 -127.5 -440.5t-318.5 -174.5q-78 0 -137 32.5t-93 94.5l-55 -309q-3 -16 -3.5 -24.5t-0.5 -18.5q0 -40 32 -56t129 -20l-14 -77h-604zM471 276q0 -92 29.5 -139t87.5 -47q48 0 85.5 49.5t69.5 157.5q31 101 48.5 206t17.5 187q0 81 -27.5 124.5t-79.5 43.5 q-48 0 -87 -46t-76 -148q-33 -93 -50.5 -193.5t-17.5 -194.5z" />
<glyph unicode="q" horiz-adv-x="1139" d="M37 360q0 106 30.5 203.5t88.5 177.5q76 108 190.5 171t233.5 63q87 0 148 -41t99 -125l140 168h63l-207 -1184q-2 -10 -3 -20t-1 -23q0 -40 32 -56t128 -20l-12 -77h-607l15 77q87 0 118 25.5t46 118.5l47 272q-43 -57 -103.5 -89t-128.5 -32q-141 0 -229 108.5 t-88 282.5zM346 262q0 -84 26 -126t79 -42q49 0 87.5 46.5t75.5 152.5q38 102 57 213.5t19 224.5q0 80 -27.5 123t-78.5 43q-55 0 -93 -49.5t-73 -167.5q-34 -110 -53 -221.5t-19 -196.5z" />
<glyph unicode="r" horiz-adv-x="1006" d="M-18 641q67 170 145 250t178 80q99 0 149.5 -62.5t59.5 -193.5q56 119 137.5 187.5t165.5 68.5q74 0 122 -48.5t48 -121.5q0 -62 -39.5 -105t-97.5 -43q-53 0 -87 32t-34 81q0 11 3 26t11 42h-4q-102 0 -178.5 -193t-148.5 -641h-293l78 393l8 43q57 277 57 334 q0 29 -10.5 45t-30.5 16q-35 0 -70 -47.5t-90 -175.5z" />
<glyph unicode="s" horiz-adv-x="901" d="M-25 209q0 61 42 105t100 44q48 0 81 -33.5t33 -82.5q0 -40 -22 -67.5t-70 -47.5q35 -39 81.5 -58.5t105.5 -19.5q76 0 127 39t51 96q0 76 -129 154l-15 8l-59 37q-99 60 -147 132t-48 161q0 138 105.5 219.5t286.5 81.5q139 0 227 -60.5t88 -152.5q0 -60 -36.5 -98.5 t-90.5 -38.5t-86.5 29.5t-32.5 78.5q0 39 23 67t65 42q-30 30 -68.5 44.5t-88.5 14.5q-72 0 -115 -36t-43 -95q0 -44 28 -79.5t105 -84.5l68 -43q107 -67 152.5 -131t45.5 -145q0 -144 -107 -231t-284 -87q-169 0 -271 65.5t-102 172.5z" />
<glyph unicode="t" horiz-adv-x="797" d="M35 872l12 74q153 15 261 95.5t188 240.5h86l-60 -334h209l-14 -76h-209l-100 -558q-2 -11 -6 -32q-13 -74 -13 -94q0 -29 14.5 -47t38.5 -18q42 0 83 60t79 177l80 -36q-51 -176 -133.5 -261.5t-200.5 -85.5q-112 0 -175.5 70t-63.5 193q0 25 4 60t16 99l84 473h-180z " />
<glyph unicode="u" horiz-adv-x="1335" d="M-27 625q51 176 132.5 261t199.5 85q109 0 171.5 -68t62.5 -188q0 -51 -13.5 -125.5t-40.5 -173.5l-32 -121q-15 -51 -20 -78.5t-5 -48.5q0 -28 19 -47t47 -19q110 0 192.5 201.5t151.5 644.5h292l-79 -393q-39 -191 -51.5 -266t-12.5 -111q0 -30 11 -46.5t30 -16.5 q35 0 70 47.5t90 177.5l80 -33q-70 -174 -147 -255t-173 -81q-100 0 -155 67.5t-58 194.5q-60 -127 -147.5 -194.5t-192.5 -67.5q-111 0 -174 72t-63 199q0 41 8 88t29 123l51 182q14 52 20 81.5t6 45.5q0 29 -15.5 46t-41.5 17q-44 0 -83 -56t-81 -181z" />
<glyph unicode="v" horiz-adv-x="1180" d="M-27 625q51 176 132.5 261t199.5 85q109 0 171.5 -68t62.5 -188q0 -51 -13.5 -125.5t-40.5 -173.5l-33 -122q-10 -39 -15 -68t-5 -52q0 -41 29.5 -65.5t79.5 -24.5q72 0 147 50t141 142q63 88 98.5 184t35.5 177q0 25 -6 47.5t-19 44.5q-21 -9 -38.5 -12.5t-35.5 -3.5 q-62 0 -98.5 34t-36.5 93q0 54 40 92.5t97 38.5q91 0 148 -76.5t57 -200.5q0 -109 -41 -229t-117 -229q-91 -134 -212 -200.5t-271 -66.5q-129 0 -199.5 71t-70.5 200q0 44 8.5 98t26.5 115l51 182q14 52 20 81.5t6 45.5q0 29 -15.5 46t-41.5 17q-44 0 -83 -56t-81 -181z " />
<glyph unicode="w" horiz-adv-x="1704" d="M-27 625q51 176 132.5 261t199.5 85q109 0 171.5 -68t62.5 -188q0 -51 -13.5 -125.5t-40.5 -173.5l-32 -121q-15 -51 -20 -78.5t-5 -48.5q0 -28 19 -47t47 -19q110 0 192.5 201.5t151.5 644.5h292l-79 -393l-8 -40q-50 -242 -50 -304q0 -53 29 -86t76 -33q68 0 133 47 t129 142q60 88 92.5 181.5t32.5 180.5q0 24 -6 46t-19 44q-18 -8 -38.5 -12t-47.5 -4q-54 0 -88.5 35t-34.5 90q0 58 38 93.5t102 35.5q87 0 144.5 -78.5t57.5 -202.5q0 -106 -38.5 -222.5t-110.5 -225.5q-88 -132 -197.5 -199.5t-238.5 -67.5q-125 0 -190 70t-73 213 q-57 -137 -147.5 -210t-202.5 -73t-174.5 70.5t-62.5 196.5q0 41 8 88t29 123l51 182q14 52 20 81.5t6 45.5q0 29 -15.5 46t-41.5 17q-44 0 -83 -56t-81 -181z" />
<glyph unicode="x" horiz-adv-x="1280" d="M-29 158q0 60 37.5 98.5t95.5 38.5q48 0 79.5 -29.5t31.5 -72.5q0 -31 -15.5 -56t-47.5 -45q17 -15 31.5 -22t29.5 -7q39 0 80.5 35.5t75.5 98.5q49 92 79.5 224t30.5 259q0 80 -37 131t-94 51q-43 0 -98.5 -41t-128.5 -127l-60 47q82 114 168.5 174t169.5 60 q102 0 168 -69.5t74 -184.5q76 125 168.5 189.5t196.5 64.5q87 0 152 -57.5t65 -133.5q0 -56 -37.5 -93.5t-93.5 -37.5q-51 0 -84 30t-33 75q0 33 15 58t46 42q-9 11 -23 17t-30 6q-102 0 -187 -178t-85 -416q0 -93 34.5 -145t96.5 -52q47 0 99 37t130 127l62 -45 q-86 -123 -171.5 -179.5t-183.5 -56.5q-96 0 -157.5 64.5t-83.5 187.5q-49 -119 -138 -185.5t-200 -66.5q-102 0 -165 51.5t-63 133.5z" />
<glyph unicode="y" horiz-adv-x="1229" d="M-27 625q51 176 132.5 261t199.5 85q109 0 171.5 -68t62.5 -188q0 -57 -14 -133.5t-40 -165.5l-28 -101q-12 -43 -17.5 -73t-5.5 -52q0 -28 18.5 -47.5t45.5 -19.5q110 0 192.5 199.5t147.5 625.5h292l-141 -815q-48 -279 -185.5 -409t-383.5 -130q-160 0 -249 54 t-89 149q0 59 38.5 98t96.5 39q55 0 92 -32t37 -78q0 -32 -11 -56t-31 -41q18 -23 48 -33.5t76 -10.5q121 0 188 120t107 420q-58 -109 -140.5 -166t-183.5 -57q-113 0 -175 68.5t-62 193.5q0 44 8.5 94t28.5 117l47 162q15 56 20.5 83t5.5 44q0 29 -15.5 46t-41.5 17 q-44 0 -83 -56t-81 -181z" />
<glyph unicode="z" horiz-adv-x="977" d="M-18 18q0 73 77.5 183.5t212.5 224.5q74 62 241 171.5t237 180.5l-17 15q-58 -40 -119 -60t-125 -20q-60 0 -141 19.5t-102 19.5q-39 0 -67 -22t-52 -71h-70q42 159 119.5 238.5t192.5 79.5q44 0 91.5 -14.5t139.5 -61.5l10 -5q97 -50 131 -50q19 0 30 15t11 40 q0 9 -2 21t-2 18q0 27 13 43t34 16q27 0 41.5 -18t14.5 -51q0 -71 -77.5 -173.5t-219.5 -219.5q-63 -53 -231.5 -165.5t-235.5 -195.5l12 -14q86 55 153 80.5t124 25.5q54 0 134 -21.5t107 -21.5q47 0 80 29.5t53 87.5h70q-11 -167 -101.5 -269t-226.5 -102 q-48 0 -101.5 16.5t-133.5 57.5q-24 12 -62 34q-63 36 -86 36q-26 0 -41.5 -16.5t-15.5 -45.5q0 -7 3 -22t3 -21q0 -29 -13.5 -44t-39.5 -15q-24 0 -38.5 18.5t-14.5 48.5z" />
<glyph unicode="{" d="M178 596v80q153 14 207.5 76.5t54.5 230.5v186q0 199 85.5 273t314.5 74h12v-66q-111 -3 -152 -54t-41 -208v-131q0 -227 -50.5 -308.5t-184.5 -113.5q134 -33 184.5 -113.5t50.5 -306.5v-131q0 -158 41 -209.5t152 -55.5v-63h-12q-229 0 -314.5 74t-85.5 272v187 q0 168 -54.5 230t-207.5 77z" />
<glyph unicode="|" d="M393 -483v2048h240v-2048h-240z" />
<glyph unicode="}" d="M172 -181q111 4 152 55.5t41 209.5v131q0 226 50.5 306.5t184.5 113.5q-134 34 -184.5 115t-50.5 307v131q0 157 -41 208t-152 54v66h12q229 0 314.5 -74t85.5 -273v-186q0 -168 54.5 -230.5t207.5 -76.5v-80q-153 -15 -207.5 -77t-54.5 -230v-187q0 -198 -85.5 -272 t-314.5 -74h-12v63z" />
<glyph unicode="~" horiz-adv-x="1706" d="M178 401v254q112 73 207.5 108.5t179.5 35.5q63 0 126.5 -12t169.5 -46q16 -5 51 -17q159 -56 247 -56q84 0 173.5 36t197.5 115v-254q-101 -69 -194 -103t-183 -34q-45 0 -89 7.5t-83 21.5q-13 4 -38 13q-255 89 -382 89q-84 0 -175.5 -37.5t-207.5 -120.5z" />
<glyph unicode="&#xa1;" horiz-adv-x="688" d="M102 131q0 81 78 243l2 4q14 29 41 83q96 189 117 289l37 184h72l-29 -195q-4 -24 -6 -64.5t-2 -103.5q0 -88 13 -213t13 -161q0 -103 -49.5 -164.5t-130.5 -61.5q-72 0 -114 43t-42 117zM307 1290q0 68 47 115t115 47q66 0 113 -47.5t47 -114.5t-46.5 -113.5 t-113.5 -46.5q-68 0 -115 46.5t-47 113.5z" />
<glyph unicode="&#xa2;" horiz-adv-x="1063" d="M76 459q0 127 64 243.5t179 200.5q70 49 151 76t163 27q37 0 73 -7t70 -20l115 246h108l-135 -293q49 -38 73 -80t24 -90q0 -64 -43 -108t-105 -44q-23 0 -45 7t-43 22l-240 -512q28 -11 47 -16t35 -5q59 0 123 38.5t129 113.5l64 -47q-76 -104 -173 -158.5t-204 -54.5 q-21 0 -39.5 2t-38.5 6l-154 -317h-106l162 344q-124 58 -189 167.5t-65 258.5zM385 358q0 -40 6.5 -77.5t20.5 -75.5l268 573q16 36 39 55t61 29q-30 30 -61 45t-66 15q-58 0 -105 -42t-79 -122q-39 -97 -61.5 -205.5t-22.5 -194.5z" />
<glyph unicode="&#xa3;" horiz-adv-x="1063" d="M35 63q0 58 93 127q23 17 36 27q36 28 55 132.5t19 277.5v51h-175l15 90h161q4 314 118.5 477.5t330.5 163.5q132 0 218.5 -66t86.5 -161q0 -58 -37.5 -98t-93.5 -40q-57 0 -92 32.5t-35 84.5q0 41 23.5 70.5t64.5 40.5q-21 25 -46 37t-54 12q-105 0 -149 -116.5 t-44 -409.5v-27h238l-14 -90h-229q-10 -143 -70 -253.5t-170 -186.5l8 -17q66 26 115.5 37.5t89.5 11.5q34 0 102 -20.5t102 -20.5q59 0 95.5 40t50.5 118h82q0 -195 -77.5 -307.5t-209.5 -112.5q-43 0 -87.5 16t-88.5 48q-25 18 -66 51q-73 59 -104 59q-23 0 -41 -18.5 t-35 -59.5q-22 -49 -42.5 -66t-53.5 -17q-39 0 -64.5 23.5t-25.5 59.5z" />
<glyph unicode="&#xa4;" horiz-adv-x="1063" d="M-14 549l34 78h138q4 41 10 81.5t14 79.5h-153l34 78h140q21 71 53 138.5t80 140.5q86 129 192.5 195.5t223.5 66.5q105 0 222 -67q26 -15 32 -15q12 0 21 11t17 36q9 21 11 33h59l-61 -455l-78 1q-9 172 -58.5 268t-130.5 96q-62 0 -114 -61.5t-94 -184.5 q-17 -47 -32.5 -101.5t-25.5 -101.5h420l-37 -78h-399q-7 -32 -15.5 -84.5t-11.5 -76.5h352l-34 -78h-328q-2 -19 -4 -41.5t-4 -60.5q-1 -14 -1.5 -30.5t-0.5 -45.5q0 -133 36.5 -204t104.5 -71q76 0 139.5 50.5t139.5 168.5l67 -63q-98 -154 -189.5 -220.5t-199.5 -66.5 q-179 0 -293.5 148.5t-114.5 386.5q0 8 1.5 24.5t1.5 24.5h-164z" />
<glyph unicode="&#xa5;" horiz-adv-x="1446" d="M-4 575l14 76h518l-55 152h-438l14 76h395l-67 184q-47 129 -102 175t-154 46l16 90h701l-17 -90q-99 0 -140.5 -19.5t-41.5 -64.5q0 -15 6 -40t17 -56l157 -432l309 436q18 27 25.5 45.5t7.5 36.5q0 48 -40 69.5t-135 24.5l15 90h531l-17 -90q-63 -2 -120 -39t-111 -110 l-184 -256h344l-14 -76h-388l-108 -152h469l-14 -76h-508l-17 -22l-55 -309q-3 -20 -4.5 -33.5t-1.5 -22.5q0 -51 40 -71.5t148 -20.5l-18 -96h-682l18 96q115 0 157 29.5t62 140.5l47 258l-20 51h-559z" />
<glyph unicode="&#xa6;" d="M393 -350v758h240v-758h-240zM393 674v758h240v-758h-240z" />
<glyph unicode="&#xa7;" d="M25 -68q0 67 43.5 112.5t109.5 45.5q51 0 86 -30t35 -72q0 -37 -35 -80.5t-35 -57.5q0 -27 27 -43t74 -16q73 0 112 34.5t39 98.5q0 46 -28.5 102t-94.5 140l-151 190q-81 103 -110 166.5t-29 124.5q0 117 82 186.5t235 81.5q-64 85 -92.5 145.5t-28.5 110.5 q0 124 98.5 199.5t260.5 75.5q139 0 226 -58.5t87 -148.5q0 -72 -44 -120t-110 -48q-53 0 -91 32t-38 77q0 39 32 77.5t32 49.5q0 25 -25 38t-74 13q-64 0 -103.5 -34.5t-39.5 -90.5q0 -43 37 -106.5t145 -196.5l105 -127q77 -95 109 -164t32 -135q0 -118 -84 -188t-229 -72 q54 -63 81 -128.5t27 -131.5q0 -126 -96 -199.5t-262 -73.5q-147 0 -231 59.5t-84 161.5zM283 723q0 -43 26 -99t80 -128q72 -96 115 -129t88 -33q44 0 71 28.5t27 75.5q0 38 -21 87.5t-63 109.5q-66 97 -117 143.5t-92 46.5q-53 0 -83.5 -27t-30.5 -75z" />
<glyph unicode="&#xa8;" d="M289 1251q0 46 36 82.5t83 36.5q49 0 83.5 -35t34.5 -84q0 -53 -33 -88t-85 -35q-49 0 -84 36t-35 87zM651 1251q0 46 36.5 82.5t82.5 36.5q50 0 85.5 -35t35.5 -84q0 -53 -34 -88t-87 -35q-49 0 -84 36t-35 87z" />
<glyph unicode="&#xa9;" horiz-adv-x="1683" d="M98 678q0 149 55.5 283t161.5 241q105 106 242.5 163.5t286.5 57.5q144 0 280.5 -56.5t241.5 -160.5q104 -104 161.5 -242.5t57.5 -285.5q0 -146 -56.5 -281.5t-162.5 -242.5q-105 -106 -240 -161.5t-284 -55.5t-283 55.5t-242 161.5q-106 104 -162.5 239t-56.5 285z M213 678q0 -130 47 -244t137 -203q93 -91 205.5 -137.5t239.5 -46.5t240.5 47.5t201.5 136.5q89 91 137.5 207.5t48.5 239.5q0 126 -48.5 244.5t-135.5 203.5q-89 88 -205 136.5t-237 48.5q-126 0 -242.5 -49t-204.5 -138q-89 -91 -136.5 -206t-47.5 -240zM403 664 q0 194 122.5 319t312.5 125q82 0 157.5 -33t79.5 -33q22 0 33.5 13.5t19.5 48.5h50v-330h-52q-29 130 -98 201.5t-164 71.5q-112 0 -167.5 -91t-55.5 -272q0 -182 61 -278.5t177 -96.5q76 0 143.5 44.5t124.5 131.5l51 -32q-64 -108 -152 -162.5t-198 -54.5 q-192 0 -318.5 122t-126.5 306z" />
<glyph unicode="&#xaa;" horiz-adv-x="930" d="M27 993q0 67 19.5 133t57.5 125q49 79 117.5 121.5t145.5 42.5q61 0 105 -24.5t73 -73.5l18 80h205l-80 -435l-2 -13q-12 -72 -12 -89q0 -20 8 -31.5t23 -11.5q27 0 55.5 37t64.5 119l60 -23q-53 -125 -113 -181t-139 -56q-63 0 -104.5 33t-55.5 94q-38 -63 -91.5 -95 t-119.5 -32q-104 0 -169.5 77.5t-65.5 202.5zM260 918q0 -57 20.5 -87t57.5 -30q38 0 67.5 32t57.5 103q25 66 39 136.5t14 131.5q0 66 -23 99.5t-67 33.5q-37 0 -65 -34t-52 -109q-23 -69 -36 -143t-13 -133z" />
<glyph unicode="&#xab;" horiz-adv-x="1133" d="M156 483l168 133q78 64 166 144t100 80t20 -6.5t8 -14.5q0 -23 -51 -91.5t-133 -152.5l-92 -92l35 -88q51 -129 72.5 -191t21.5 -79q0 -8 -6.5 -13.5t-15.5 -5.5q-13 0 -80 98.5t-131 178.5zM508 483l168 133q79 65 166 144.5t98 79.5q12 0 20.5 -6.5t8.5 -14.5 q0 -24 -51 -92.5t-132 -151.5l-92 -92l35 -88q51 -129 72.5 -191t21.5 -79q0 -8 -6.5 -13.5t-15.5 -5.5q-13 0 -81.5 99t-131.5 178z" />
<glyph unicode="&#xac;" horiz-adv-x="1706" d="M254 639v227h1198v-501h-229v274h-969z" />
<glyph unicode="&#xad;" horiz-adv-x="688" d="M6 344l47 260h543l-47 -260h-543z" />
<glyph unicode="&#xae;" horiz-adv-x="1683" d="M98 678q0 149 56 284t161 240q105 106 242.5 163.5t286.5 57.5q150 0 291 -60t245 -169q99 -102 152 -240t53 -292q0 -141 -63 -280.5t-176 -246.5q-102 -97 -232 -149t-272 -52q-109 0 -212.5 31.5t-197.5 91.5q-159 107 -246.5 269.5t-87.5 351.5zM213 678 q0 -130 47 -244t137 -203q93 -91 205.5 -137.5t239.5 -46.5t240.5 47.5t201.5 136.5q89 91 137.5 207.5t48.5 239.5q0 125 -49 243.5t-137 204.5q-89 88 -204 136.5t-236 48.5q-127 0 -244.5 -49t-204.5 -138q-88 -90 -135 -204.5t-47 -241.5zM463 281v57q57 5 77.5 24 t20.5 66v524q0 47 -19 65.5t-79 26.5v56h405q147 0 236.5 -56t89.5 -145q0 -87 -64.5 -136.5t-211.5 -74.5q116 -23 172.5 -87.5t56.5 -172.5q0 -48 10 -68t33 -20q25 0 39 31t14 88v12h55q0 -5 1 -15t1 -14q0 -90 -47 -135t-141 -45q-45 0 -80 13t-55 36q-32 37 -36 134 q-2 43 -5 65q-13 87 -47.5 124.5t-100.5 37.5h-16v-244q0 -45 18 -63.5t70 -26.5v-57h-397zM772 728q8 -2 16 -2.5t23 -0.5q85 0 127.5 43.5t42.5 130.5q0 62 -38.5 103.5t-98.5 41.5q-37 0 -54.5 -15.5t-17.5 -47.5v-253z" />
<glyph unicode="&#xaf;" d="M297 1176l31 147h553l-31 -147h-553z" />
<glyph unicode="&#xb0;" horiz-adv-x="674" d="M27 1155q0 131 90.5 221t220.5 90q129 0 220 -91t91 -220q0 -128 -91.5 -219.5t-221.5 -91.5q-129 0 -219 90.5t-90 220.5zM172 1157q0 -70 48 -118t118 -48q68 0 116 49t48 117t-48 116t-116 48q-69 0 -117.5 -48t-48.5 -116z" />
<glyph unicode="&#xb1;" horiz-adv-x="1706" d="M254 -18v231h1198v-231h-1198zM254 690v232h481v319h238v-319h479v-232h-479v-319h-238v319h-481z" />
<glyph unicode="&#xb2;" horiz-adv-x="702" d="M16 551q0 83 42.5 155.5t177.5 192.5q80 69 110.5 105.5t44.5 72.5q15 36 23 75.5t8 78.5q0 54 -24.5 81t-73.5 27q-36 0 -65 -13.5t-50 -41.5q44 -8 68 -30t24 -56q0 -36 -27.5 -59t-70.5 -23q-46 0 -76.5 30t-30.5 77q0 69 74.5 120.5t177.5 51.5q120 0 197.5 -61.5 t77.5 -155.5q0 -48 -18.5 -89t-53.5 -73q-51 -48 -185 -125q-42 -24 -63 -37q-53 -31 -94 -66t-72 -75h219q80 0 110 20.5t48 79.5h57l-67 -262h-488z" />
<glyph unicode="&#xb3;" horiz-adv-x="702" d="M27 696q0 43 30.5 73t73.5 30q42 0 69 -24.5t27 -61.5q0 -33 -18.5 -54.5t-56.5 -33.5q15 -18 37 -26.5t51 -8.5q36 0 62 22t42 66q18 53 27.5 109t9.5 102q0 47 -22 65.5t-80 18.5h-39q-17 0 -26 7.5t-9 20.5t10 22t25 9q9 0 33.5 -6t39.5 -6q59 0 93 64.5t34 175.5 q0 41 -23 64.5t-65 23.5q-21 0 -39 -6.5t-37 -20.5q25 -14 36.5 -32t11.5 -40q0 -35 -26.5 -57.5t-68.5 -22.5q-41 0 -68.5 26t-27.5 65q0 58 61 96.5t156 38.5q120 0 196.5 -57t76.5 -144q0 -79 -61 -131.5t-167 -65.5l-4 -10q86 -17 134 -71.5t48 -135.5 q0 -105 -87 -177.5t-214 -72.5q-107 0 -176 47.5t-69 118.5z" />
<glyph unicode="&#xb4;" d="M377 1087l307 306q29 27 58 41t57 14q32 0 56 -25.5t24 -60.5q0 -26 -16 -47.5t-52 -42.5l-330 -185h-104z" />
<glyph unicode="&#xb5;" horiz-adv-x="1233" d="M-98 -303q0 56 69 281t105 397l108 510h293l-106 -498q-10 -43 -15.5 -75t-5.5 -50q0 -54 28 -86.5t75 -32.5q62 0 104 55t68 171l110 516h291l-111 -525q-6 -26 -9 -49t-3 -43q0 -43 19.5 -67.5t54.5 -24.5q26 0 49.5 13.5t40.5 37.5q10 14 25 42q35 63 65 63 q11 0 20 -12t9 -27q0 -30 -21 -87t-53 -104q-41 -62 -95.5 -92t-125.5 -30q-90 0 -136.5 47.5t-54.5 146.5q-36 -97 -98.5 -145.5t-150.5 -48.5q-101 0 -161 54.5t-71 155.5q-12 -89 -27 -239q-40 -377 -163 -377q-57 0 -92 34.5t-35 88.5z" />
<glyph unicode="&#xb6;" d="M29 1130q0 158 106 253.5t283 95.5h579v-123h-106v-1356h-176v1356h-150v-1356h-174v784q-164 6 -263 101t-99 245z" />
<glyph unicode="&#xb7;" horiz-adv-x="530" d="M104 707q0 67 48 114t114 47q67 0 113.5 -47t46.5 -114q0 -68 -46 -114t-114 -46q-66 0 -114 47t-48 113z" />
<glyph unicode="&#xb8;" d="M190 -377l41 90q77 -41 133 -58t107 -17q47 0 71.5 22t24.5 66q0 39 -27 60t-77 21q-16 0 -39 -3t-51 -9l67 205h70l-35 -114q16 2 33 3.5t33 1.5q85 0 134.5 -45.5t49.5 -124.5q0 -84 -60 -132t-167 -48q-59 0 -133 19.5t-175 62.5z" />
<glyph unicode="&#xb9;" horiz-adv-x="700" d="M33 551l10 57h12q82 0 111.5 18.5t42.5 86.5l88 452q1 7 2.5 18t1.5 15q0 32 -30 44.5t-113 12.5h-21l8 49q116 10 196 31.5t142 59.5h54l-136 -697q-2 -8 -3 -15.5t-1 -18.5q0 -32 27 -44t108 -12h19l-10 -57h-508z" />
<glyph unicode="&#xba;" horiz-adv-x="836" d="M16 1010q0 76 31 146t94 134q65 64 143 96.5t162 32.5q140 0 225 -79.5t85 -211.5q0 -86 -35 -161t-103 -136q-60 -57 -136 -87.5t-158 -30.5q-138 0 -223 81.5t-85 215.5zM250 885q0 -54 22 -82.5t62 -28.5q35 0 65 25.5t47 70.5q15 33 28.5 82t25.5 111q13 60 19.5 112 t6.5 91q0 44 -22.5 71t-59.5 27q-40 0 -70 -29.5t-50 -89.5q-35 -96 -54.5 -193.5t-19.5 -166.5z" />
<glyph unicode="&#xbb;" horiz-adv-x="1133" d="M100 127q0 24 51 93t132 151l92 94l-35 88q-54 136 -74 194t-20 74q0 8 6.5 14.5t15.5 6.5q13 0 81.5 -99t131.5 -178l80 -100l-168 -135q-78 -63 -166.5 -143.5t-99.5 -80.5t-19 6.5t-8 14.5zM451 127q0 23 51 91.5t133 152.5l92 94l-35 88q-54 136 -74 194t-20 74 q0 8 7 14.5t16 6.5q12 0 79 -98.5t131 -178.5l82 -100l-168 -135q-78 -63 -166 -143.5t-100 -80.5q-11 0 -19.5 6.5t-8.5 14.5z" />
<glyph unicode="&#xbc;" horiz-adv-x="1681" d="M33 606l10 53h10q79 0 107 17.5t41 79.5l84 424q0 4 1 11q3 16 3 19q0 30 -29 42t-106 12h-21l8 46q110 8 186.5 28t137.5 57h49l-131 -652q-1 -7 -1.5 -14t-0.5 -16q0 -31 25.5 -42.5t103.5 -11.5h18l-12 -53h-483zM328 -33l913 1440h111l-914 -1440h-110zM1018 205 l16 90l457 493h123l-103 -514h109l-14 -69h-107l-14 -67q-3 -11 -4.5 -18.5t-1.5 -13.5q0 -30 27 -41.5t108 -11.5l-10 -53h-469l12 53h20q78 0 105 17.5t39 79.5l12 55h-305zM1094 274h241l70 340z" />
<glyph unicode="&#xbd;" horiz-adv-x="1681" d="M33 606l10 53h10q79 0 107 17.5t41 79.5l84 424q0 4 1 11q3 16 3 19q0 30 -29 42t-106 12h-21l8 46q110 8 186.5 28t137.5 57h49l-131 -652q-1 -7 -1.5 -14t-0.5 -16q0 -31 25.5 -42.5t103.5 -11.5h18l-12 -53h-483zM328 -33l913 1440h111l-914 -1440h-110zM1028 0 q0 79 41 147t167 176l7 6q116 101 143 163q14 33 21.5 70.5t7.5 72.5q0 50 -24 76t-70 26q-34 0 -62.5 -13.5t-48.5 -39.5q43 -8 65.5 -28.5t22.5 -51.5q0 -34 -25 -55t-67 -21q-44 0 -73 28t-29 71q0 65 70.5 113t171.5 48q113 0 186.5 -57.5t73.5 -144.5 q0 -43 -17.5 -81.5t-50.5 -70.5q-46 -41 -166 -110q-47 -27 -72 -41q-53 -32 -91 -64t-66 -69h209q74 0 103.5 19.5t47.5 76.5h53l-65 -246h-463z" />
<glyph unicode="&#xbe;" horiz-adv-x="1681" d="M27 743q0 39 29 67t69 28q41 0 66.5 -23t25.5 -59q0 -30 -17.5 -50t-54.5 -30q14 -17 34.5 -25t49.5 -8q34 0 59.5 21t39.5 61q17 51 27 105t10 92q0 44 -21.5 61.5t-77.5 17.5h-37q-17 0 -25.5 6.5t-8.5 18.5t9.5 20.5t24.5 8.5q8 0 31 -5.5t39 -5.5q56 0 88.5 60.5 t32.5 163.5q0 38 -22 60t-62 22q-22 0 -39 -6t-32 -18q21 -14 32.5 -30.5t11.5 -35.5q0 -34 -25.5 -55t-66.5 -21q-37 0 -63.5 24t-26.5 60q0 55 58 91t149 36q114 0 187 -53.5t73 -135.5q0 -73 -58 -122.5t-159 -61.5l-2 -8q80 -15 126 -66.5t46 -126.5q0 -99 -82.5 -166 t-204.5 -67q-103 0 -168 43.5t-65 111.5zM328 -33l913 1440h111l-914 -1440h-110zM1018 205l16 90l457 493h123l-103 -514h109l-14 -69h-107l-14 -67q-3 -11 -4.5 -18.5t-1.5 -13.5q0 -30 27 -41.5t108 -11.5l-10 -53h-469l12 53h20q78 0 105 17.5t39 79.5l12 55h-305z M1094 274h241l70 340z" />
<glyph unicode="&#xbf;" horiz-adv-x="1133" d="M72 297q0 98 56.5 168t225.5 158l49 24q93 47 153 117t91 168h74q-14 -146 -160 -328l-2 -2l-1 -1q-161 -198 -161 -341q0 -104 50 -157.5t147 -53.5q57 0 102 20t76 58q-58 18 -87.5 54.5t-29.5 90.5q0 62 44.5 106t107.5 44q66 0 110 -48t44 -120q0 -126 -115.5 -206.5 t-302.5 -80.5q-213 0 -342 91.5t-129 238.5zM573 1286q0 68 46.5 114t113.5 46q66 0 113 -47t47 -113q0 -67 -46.5 -113.5t-113.5 -46.5t-113.5 46.5t-46.5 113.5z" />
<glyph unicode="&#xc0;" horiz-adv-x="1536" d="M-141 0l18 100q70 6 119 43.5t115 147.5l665 1122h301l205 -1143q19 -103 56.5 -131.5t146.5 -38.5l-17 -100h-757l18 100q111 6 147.5 29.5t36.5 83.5q0 9 -1 20t-3 23l-35 217h-520l-104 -184q-17 -31 -25 -53.5t-8 -40.5q0 -42 41.5 -63.5t144.5 -31.5l-16 -100h-528z M418 580h438l-102 579zM688 1833q0 37 24 61.5t60 24.5q26 0 49 -14.5t50 -46.5l245 -302h-104l-260 193q-35 26 -49.5 45.5t-14.5 38.5z" />
<glyph unicode="&#xc1;" horiz-adv-x="1536" d="M-141 0l18 100q70 6 119 43.5t115 147.5l665 1122h301l205 -1143q19 -103 56.5 -131.5t146.5 -38.5l-17 -100h-757l18 100q111 6 147.5 29.5t36.5 83.5q0 9 -1 20t-3 23l-35 217h-520l-104 -184q-17 -31 -25 -53.5t-8 -40.5q0 -42 41.5 -63.5t144.5 -31.5l-16 -100h-528z M418 580h438l-102 579zM750 1556l307 306q29 27 58 41t57 14q32 0 56 -25.5t24 -60.5q0 -26 -16 -47.5t-52 -42.5l-330 -185h-104z" />
<glyph unicode="&#xc2;" horiz-adv-x="1536" d="M-141 0l18 100q70 6 119 43.5t115 147.5l665 1122h301l205 -1143q19 -103 56.5 -131.5t146.5 -38.5l-17 -100h-757l18 100q111 6 147.5 29.5t36.5 83.5q0 9 -1 20t-3 23l-35 217h-520l-104 -184q-17 -31 -25 -53.5t-8 -40.5q0 -42 41.5 -63.5t144.5 -31.5l-16 -100h-528z M418 580h438l-102 579zM617 1556l307 349h127l164 -349h-80l-168 181l-246 -181h-104z" />
<glyph unicode="&#xc3;" horiz-adv-x="1536" d="M-141 0l18 100q70 6 119 43.5t115 147.5l665 1122h301l205 -1143q19 -103 56.5 -131.5t146.5 -38.5l-17 -100h-757l18 100q111 6 147.5 29.5t36.5 83.5q0 9 -1 20t-3 23l-35 217h-520l-104 -184q-17 -31 -25 -53.5t-8 -40.5q0 -42 41.5 -63.5t144.5 -31.5l-16 -100h-528z M418 580h438l-102 579zM674 1577q20 118 71.5 180t129.5 62q22 0 34 -1.5t24 -5.5l87 -24q25 -6 38.5 -8t23.5 -2q43 0 67 19.5t35 64.5h66q-22 -115 -72.5 -174.5t-126.5 -59.5q-14 0 -49 7q-4 1 -6 1l-107 27q-10 3 -21 4.5t-28 1.5q-39 0 -62.5 -21.5t-37.5 -70.5h-66z " />
<glyph unicode="&#xc4;" horiz-adv-x="1536" d="M-141 0l18 100q70 6 119 43.5t115 147.5l665 1122h301l205 -1143q19 -103 56.5 -131.5t146.5 -38.5l-17 -100h-757l18 100q111 6 147.5 29.5t36.5 83.5q0 9 -1 20t-3 23l-35 217h-520l-104 -184q-17 -31 -25 -53.5t-8 -40.5q0 -42 41.5 -63.5t144.5 -31.5l-16 -100h-528z M418 580h438l-102 579zM662 1720q0 46 36 82.5t83 36.5q49 0 83.5 -35t34.5 -84q0 -53 -33 -88t-85 -35q-49 0 -84 36t-35 87zM1024 1720q0 46 36.5 82.5t82.5 36.5q50 0 85.5 -35t35.5 -84q0 -53 -34 -88t-87 -35q-49 0 -84 36t-35 87z" />
<glyph unicode="&#xc5;" horiz-adv-x="1536" d="M-141 0l18 100q70 6 119 43.5t115 147.5l665 1122h301l205 -1143q19 -103 56.5 -131.5t146.5 -38.5l-17 -100h-757l18 100q111 6 147.5 29.5t36.5 83.5q0 9 -1 20t-3 23l-35 217h-520l-104 -184q-17 -31 -25 -53.5t-8 -40.5q0 -42 41.5 -63.5t144.5 -31.5l-16 -100h-528z M418 580h438l-102 579zM674 1720q0 106 73.5 179t180.5 73q106 0 179 -73t73 -179t-73.5 -180t-178.5 -74q-106 0 -180 74t-74 180zM784 1718q0 -59 42 -100t102 -41t100.5 40.5t40.5 100.5t-41.5 102t-99.5 42q-60 0 -101 -42t-43 -102z" />
<glyph unicode="&#xc6;" horiz-adv-x="2138" d="M-231 0l18 100q79 6 140 45t145 146l704 899q10 13 15.5 26.5t5.5 26.5q0 42 -46 59t-167 17l16 94h1266q57 0 106.5 3.5t91.5 10.5l-49 -483l-102 7q-10 208 -79.5 281t-260.5 73q-93 0 -129 -22.5t-45 -80.5l-72 -405h27q102 0 156.5 51.5t82.5 175.5h107 q-40 -204 -65.5 -349.5t-41.5 -260.5h-104q3 51 4.5 80t1.5 38q0 84 -40 121t-130 37h-16l-74 -414q-4 -23 -6 -43.5t-2 -33.5q0 -47 29.5 -65.5t105.5 -18.5q198 0 313 79t185 263h110l-108 -457h-1211l17 100q111 3 152.5 35t60.5 139l32 199h-561l-90 -119 q-41 -52 -58.5 -88t-17.5 -65q0 -47 39.5 -69.5t141.5 -31.5l-19 -100h-579zM436 580h498l127 725h-57z" />
<glyph unicode="&#xc7;" horiz-adv-x="1489" d="M80 567q0 182 59.5 338t175.5 279q124 129 272.5 195.5t315.5 66.5q115 0 251.5 -48t160.5 -48q18 0 35 20.5t41 73.5h94l-60 -526l-90 8q-42 198 -148.5 307.5t-256.5 109.5q-107 0 -189 -60t-133 -175q-61 -139 -98 -319.5t-37 -339.5q0 -170 77.5 -260.5t221.5 -90.5 q112 0 224 63.5t233 194.5l82 -75q-132 -160 -287.5 -237t-345.5 -77q-275 0 -436.5 162.5t-161.5 437.5zM323 -377l41 90q77 -41 133 -58t107 -17q47 0 71.5 22t24.5 66q0 39 -27 60t-77 21q-16 0 -39 -3t-51 -9l67 205h70l-35 -114q16 2 33 3.5t33 1.5q85 0 134.5 -45.5 t49.5 -124.5q0 -84 -60 -132t-167 -48q-59 0 -133 19.5t-175 62.5z" />
<glyph unicode="&#xc8;" horiz-adv-x="1460" d="M-51 0l16 100q113 4 154 35t59 139l158 894q3 20 4.5 34t1.5 23q0 50 -37.5 70t-142.5 24l16 94h1016q57 0 105.5 3.5t90.5 10.5l-47 -483l-104 6q-10 209 -80.5 282t-269.5 73q-93 0 -127.5 -22.5t-44.5 -80.5l-72 -405h27q102 0 156.5 51.5t82.5 175.5h109 q-37 -175 -64.5 -327t-46.5 -283h-100q1 33 2.5 72.5t1.5 45.5q0 84 -40 121t-130 37h-16l-74 -414q-4 -23 -6 -43.5t-2 -33.5q0 -47 29.5 -65.5t105.5 -18.5q206 0 320.5 78t185.5 264h112l-108 -457h-1241zM618 1833q0 37 24 61.5t60 24.5q26 0 49 -14.5t50 -46.5 l245 -302h-104l-260 193q-35 26 -49.5 45.5t-14.5 38.5z" />
<glyph unicode="&#xc9;" horiz-adv-x="1460" d="M-51 0l16 100q113 4 154 35t59 139l158 894q3 20 4.5 34t1.5 23q0 50 -37.5 70t-142.5 24l16 94h1016q57 0 105.5 3.5t90.5 10.5l-47 -483l-104 6q-10 209 -80.5 282t-269.5 73q-93 0 -127.5 -22.5t-44.5 -80.5l-72 -405h27q102 0 156.5 51.5t82.5 175.5h109 q-37 -175 -64.5 -327t-46.5 -283h-100q1 33 2.5 72.5t1.5 45.5q0 84 -40 121t-130 37h-16l-74 -414q-4 -23 -6 -43.5t-2 -33.5q0 -47 29.5 -65.5t105.5 -18.5q206 0 320.5 78t185.5 264h112l-108 -457h-1241zM680 1556l307 306q29 27 58 41t57 14q32 0 56 -25.5t24 -60.5 q0 -26 -16 -47.5t-52 -42.5l-330 -185h-104z" />
<glyph unicode="&#xca;" horiz-adv-x="1460" d="M-51 0l16 100q113 4 154 35t59 139l158 894q3 20 4.5 34t1.5 23q0 50 -37.5 70t-142.5 24l16 94h1016q57 0 105.5 3.5t90.5 10.5l-47 -483l-104 6q-10 209 -80.5 282t-269.5 73q-93 0 -127.5 -22.5t-44.5 -80.5l-72 -405h27q102 0 156.5 51.5t82.5 175.5h109 q-37 -175 -64.5 -327t-46.5 -283h-100q1 33 2.5 72.5t1.5 45.5q0 84 -40 121t-130 37h-16l-74 -414q-4 -23 -6 -43.5t-2 -33.5q0 -47 29.5 -65.5t105.5 -18.5q206 0 320.5 78t185.5 264h112l-108 -457h-1241zM547 1556l307 349h127l164 -349h-80l-168 181l-246 -181h-104z " />
<glyph unicode="&#xcb;" horiz-adv-x="1460" d="M-51 0l16 100q113 4 154 35t59 139l158 894q3 20 4.5 34t1.5 23q0 50 -37.5 70t-142.5 24l16 94h1016q57 0 105.5 3.5t90.5 10.5l-47 -483l-104 6q-10 209 -80.5 282t-269.5 73q-93 0 -127.5 -22.5t-44.5 -80.5l-72 -405h27q102 0 156.5 51.5t82.5 175.5h109 q-37 -175 -64.5 -327t-46.5 -283h-100q1 33 2.5 72.5t1.5 45.5q0 84 -40 121t-130 37h-16l-74 -414q-4 -23 -6 -43.5t-2 -33.5q0 -47 29.5 -65.5t105.5 -18.5q206 0 320.5 78t185.5 264h112l-108 -457h-1241zM592 1720q0 46 36 82.5t83 36.5q49 0 83.5 -35t34.5 -84 q0 -53 -33 -88t-85 -35q-49 0 -84 36t-35 87zM954 1720q0 46 36.5 82.5t82.5 36.5q50 0 85.5 -35t35.5 -84q0 -53 -34 -88t-87 -35q-49 0 -84 36t-35 87z" />
<glyph unicode="&#xcc;" horiz-adv-x="909" d="M-47 0l18 100q111 3 152 34t59 140l158 893q3 20 4.5 34t1.5 24q0 50 -37.5 70.5t-140.5 23.5l16 94h772l-16 -94q-111 -3 -152 -33t-61 -141l-158 -896q-3 -20 -4.5 -34t-1.5 -22q0 -50 36 -69.5t142 -23.5l-16 -100h-772zM348 1833q0 37 24 61.5t60 24.5q26 0 49 -14.5 t50 -46.5l245 -302h-104l-260 193q-35 26 -49.5 45.5t-14.5 38.5z" />
<glyph unicode="&#xcd;" horiz-adv-x="909" d="M-47 0l18 100q111 3 152 34t59 140l158 893q3 20 4.5 34t1.5 24q0 50 -37.5 70.5t-140.5 23.5l16 94h772l-16 -94q-111 -3 -152 -33t-61 -141l-158 -896q-3 -20 -4.5 -34t-1.5 -22q0 -50 36 -69.5t142 -23.5l-16 -100h-772zM410 1556l307 306q29 27 58 41t57 14 q32 0 56 -25.5t24 -60.5q0 -26 -16 -47.5t-52 -42.5l-330 -185h-104z" />
<glyph unicode="&#xce;" horiz-adv-x="909" d="M-47 0l18 100q111 3 152 34t59 140l158 893q3 20 4.5 34t1.5 24q0 50 -37.5 70.5t-140.5 23.5l16 94h772l-16 -94q-111 -3 -152 -33t-61 -141l-158 -896q-3 -20 -4.5 -34t-1.5 -22q0 -50 36 -69.5t142 -23.5l-16 -100h-772zM277 1556l307 349h127l164 -349h-80l-168 181 l-246 -181h-104z" />
<glyph unicode="&#xcf;" horiz-adv-x="909" d="M-47 0l18 100q111 3 152 34t59 140l158 893q3 20 4.5 34t1.5 24q0 50 -37.5 70.5t-140.5 23.5l16 94h772l-16 -94q-111 -3 -152 -33t-61 -141l-158 -896q-3 -20 -4.5 -34t-1.5 -22q0 -50 36 -69.5t142 -23.5l-16 -100h-772zM322 1720q0 46 36 82.5t83 36.5q49 0 83.5 -35 t34.5 -84q0 -53 -33 -88t-85 -35q-49 0 -84 36t-35 87zM684 1720q0 46 36.5 82.5t82.5 36.5q50 0 85.5 -35t35.5 -84q0 -53 -34 -88t-87 -35q-49 0 -84 36t-35 87z" />
<glyph unicode="&#xd0;" horiz-adv-x="1677" d="M-51 0l16 100q113 4 154 35t59 139l74 424h-254l18 101h254l66 369q3 20 4.5 34t1.5 23q0 50 -37.5 70t-142.5 24l16 94h641q389 0 579.5 -157.5t190.5 -479.5q0 -175 -66.5 -322t-195.5 -257q-117 -101 -271 -149t-360 -48h-747zM551 193q0 -52 41 -72.5t153 -20.5 q109 0 189 58.5t129 173.5q56 135 87.5 292t31.5 304q0 189 -75 288t-218 99q-82 0 -118 -32t-56 -138l-62 -346h244l-16 -101h-244l-80 -448q-3 -20 -4.5 -34t-1.5 -23z" />
<glyph unicode="&#xd1;" horiz-adv-x="1614" d="M-51 0l16 100q101 12 152 63t69 161l150 844q3 19 4.5 34t1.5 23q0 49 -37 69.5t-141 24.5l16 94h504l533 -934l100 574q6 39 9 68t3 50q0 70 -43.5 104t-144.5 44l16 94h522l-16 -94q-100 -12 -150.5 -63t-70.5 -162l-197 -1094h-186l-619 1087l-129 -722 q-6 -39 -9 -68.5t-3 -50.5q0 -69 43.5 -102.5t144.5 -43.5l-18 -100h-520zM672 1577q20 118 71.5 180t129.5 62q22 0 34 -1.5t24 -5.5l87 -24q25 -6 38.5 -8t23.5 -2q43 0 67 19.5t35 64.5h66q-22 -115 -72.5 -174.5t-126.5 -59.5q-14 0 -49 7q-4 1 -6 1l-107 27 q-10 3 -21 4.5t-28 1.5q-39 0 -62.5 -21.5t-37.5 -70.5h-66z" />
<glyph unicode="&#xd2;" horiz-adv-x="1587" d="M80 567q0 182 59.5 338t175.5 279q122 129 273 196.5t319 67.5q274 0 438 -168t164 -449q0 -163 -57.5 -314.5t-167.5 -274.5q-119 -134 -274.5 -205.5t-329.5 -71.5q-274 0 -437 163.5t-163 438.5zM465 379q0 -148 62 -228.5t175 -80.5q98 0 176.5 69.5t120.5 194.5 q23 63 43.5 150.5t44.5 224.5q22 119 30.5 195.5t8.5 139.5q0 150 -60 230t-173 80q-120 0 -199.5 -87t-130.5 -274q-46 -170 -72 -335t-26 -279zM688 1833q0 37 24 61.5t60 24.5q26 0 49 -14.5t50 -46.5l245 -302h-104l-260 193q-35 26 -49.5 45.5t-14.5 38.5z" />
<glyph unicode="&#xd3;" horiz-adv-x="1587" d="M80 567q0 182 59.5 338t175.5 279q122 129 273 196.5t319 67.5q274 0 438 -168t164 -449q0 -163 -57.5 -314.5t-167.5 -274.5q-119 -134 -274.5 -205.5t-329.5 -71.5q-274 0 -437 163.5t-163 438.5zM465 379q0 -148 62 -228.5t175 -80.5q98 0 176.5 69.5t120.5 194.5 q23 63 43.5 150.5t44.5 224.5q22 119 30.5 195.5t8.5 139.5q0 150 -60 230t-173 80q-120 0 -199.5 -87t-130.5 -274q-46 -170 -72 -335t-26 -279zM750 1556l307 306q29 27 58 41t57 14q32 0 56 -25.5t24 -60.5q0 -26 -16 -47.5t-52 -42.5l-330 -185h-104z" />
<glyph unicode="&#xd4;" horiz-adv-x="1587" d="M80 567q0 182 59.5 338t175.5 279q122 129 273 196.5t319 67.5q274 0 438 -168t164 -449q0 -163 -57.5 -314.5t-167.5 -274.5q-119 -134 -274.5 -205.5t-329.5 -71.5q-274 0 -437 163.5t-163 438.5zM465 379q0 -148 62 -228.5t175 -80.5q98 0 176.5 69.5t120.5 194.5 q23 63 43.5 150.5t44.5 224.5q22 119 30.5 195.5t8.5 139.5q0 150 -60 230t-173 80q-120 0 -199.5 -87t-130.5 -274q-46 -170 -72 -335t-26 -279zM617 1556l307 349h127l164 -349h-80l-168 181l-246 -181h-104z" />
<glyph unicode="&#xd5;" horiz-adv-x="1587" d="M80 567q0 182 59.5 338t175.5 279q122 129 273 196.5t319 67.5q274 0 438 -168t164 -449q0 -163 -57.5 -314.5t-167.5 -274.5q-119 -134 -274.5 -205.5t-329.5 -71.5q-274 0 -437 163.5t-163 438.5zM465 379q0 -148 62 -228.5t175 -80.5q98 0 176.5 69.5t120.5 194.5 q23 63 43.5 150.5t44.5 224.5q22 119 30.5 195.5t8.5 139.5q0 150 -60 230t-173 80q-120 0 -199.5 -87t-130.5 -274q-46 -170 -72 -335t-26 -279zM674 1577q20 118 71.5 180t129.5 62q22 0 34 -1.5t24 -5.5l87 -24q25 -6 38.5 -8t23.5 -2q43 0 67 19.5t35 64.5h66 q-22 -115 -72.5 -174.5t-126.5 -59.5q-14 0 -49 7q-4 1 -6 1l-107 27q-10 3 -21 4.5t-28 1.5q-39 0 -62.5 -21.5t-37.5 -70.5h-66z" />
<glyph unicode="&#xd6;" horiz-adv-x="1587" d="M80 567q0 182 59.5 338t175.5 279q122 129 273 196.5t319 67.5q274 0 438 -168t164 -449q0 -163 -57.5 -314.5t-167.5 -274.5q-119 -134 -274.5 -205.5t-329.5 -71.5q-274 0 -437 163.5t-163 438.5zM465 379q0 -148 62 -228.5t175 -80.5q98 0 176.5 69.5t120.5 194.5 q23 63 43.5 150.5t44.5 224.5q22 119 30.5 195.5t8.5 139.5q0 150 -60 230t-173 80q-120 0 -199.5 -87t-130.5 -274q-46 -170 -72 -335t-26 -279zM662 1720q0 46 36 82.5t83 36.5q49 0 83.5 -35t34.5 -84q0 -53 -33 -88t-85 -35q-49 0 -84 36t-35 87zM1024 1720 q0 46 36.5 82.5t82.5 36.5q50 0 85.5 -35t35.5 -84q0 -53 -34 -88t-87 -35q-49 0 -84 36t-35 87z" />
<glyph unicode="&#xd7;" horiz-adv-x="1706" d="M268 170l441 440l-441 443l162 161l440 -440l441 440l162 -161l-441 -443l441 -440l-162 -162l-441 441l-440 -441z" />
<glyph unicode="&#xd8;" horiz-adv-x="1587" d="M80 578q0 177 59 328.5t176 277.5q121 129 275 197.5t325 68.5q64 0 130 -14t139 -43l123 188h116l-155 -235q122 -91 181.5 -215.5t59.5 -290.5q0 -161 -53 -308.5t-158 -273.5q-116 -141 -277.5 -217t-344.5 -76q-82 0 -151 14t-130 44l-137 -207h-117l168 256 q-117 93 -173 216.5t-56 289.5zM467 311l616 934q-28 53 -76 81t-112 28q-122 0 -201.5 -86.5t-130.5 -274.5q-46 -167 -71 -332t-25 -303v-47zM504 186q32 -58 83.5 -87t121.5 -29q129 0 214 121t140 387q32 155 47.5 271.5t15.5 192.5q0 24 -1.5 44t-4.5 34z" />
<glyph unicode="&#xd9;" horiz-adv-x="1583" d="M150 1319l16 94h768l-17 -94q-111 -3 -152.5 -34t-59.5 -140l-123 -696q-5 -27 -8 -54t-3 -53q0 -107 65.5 -166t182.5 -59q151 0 245 91.5t126 270.5l100 574q6 39 9.5 68t3.5 50q0 70 -44 104t-145 44l16 94h523l-17 -94q-100 -12 -151 -63.5t-70 -161.5l-100 -576 q-50 -284 -201 -418.5t-422 -134.5q-242 0 -370.5 103.5t-128.5 298.5q0 33 4 73.5t12 87.5l113 640q2 18 4 33.5t2 23.5q0 49 -38 70t-140 24zM721 1833q0 37 24 61.5t60 24.5q26 0 49 -14.5t50 -46.5l245 -302h-104l-260 193q-35 26 -49.5 45.5t-14.5 38.5z" />
<glyph unicode="&#xda;" horiz-adv-x="1583" d="M150 1319l16 94h768l-17 -94q-111 -3 -152.5 -34t-59.5 -140l-123 -696q-5 -27 -8 -54t-3 -53q0 -107 65.5 -166t182.5 -59q151 0 245 91.5t126 270.5l100 574q6 39 9.5 68t3.5 50q0 70 -44 104t-145 44l16 94h523l-17 -94q-100 -12 -151 -63.5t-70 -161.5l-100 -576 q-50 -284 -201 -418.5t-422 -134.5q-242 0 -370.5 103.5t-128.5 298.5q0 33 4 73.5t12 87.5l113 640q2 18 4 33.5t2 23.5q0 49 -38 70t-140 24zM783 1556l307 306q29 27 58 41t57 14q32 0 56 -25.5t24 -60.5q0 -26 -16 -47.5t-52 -42.5l-330 -185h-104z" />
<glyph unicode="&#xdb;" horiz-adv-x="1583" d="M150 1319l16 94h768l-17 -94q-111 -3 -152.5 -34t-59.5 -140l-123 -696q-5 -27 -8 -54t-3 -53q0 -107 65.5 -166t182.5 -59q151 0 245 91.5t126 270.5l100 574q6 39 9.5 68t3.5 50q0 70 -44 104t-145 44l16 94h523l-17 -94q-100 -12 -151 -63.5t-70 -161.5l-100 -576 q-50 -284 -201 -418.5t-422 -134.5q-242 0 -370.5 103.5t-128.5 298.5q0 33 4 73.5t12 87.5l113 640q2 18 4 33.5t2 23.5q0 49 -38 70t-140 24zM650 1556l307 349h127l164 -349h-80l-168 181l-246 -181h-104z" />
<glyph unicode="&#xdc;" horiz-adv-x="1583" d="M150 1319l16 94h768l-17 -94q-111 -3 -152.5 -34t-59.5 -140l-123 -696q-5 -27 -8 -54t-3 -53q0 -107 65.5 -166t182.5 -59q151 0 245 91.5t126 270.5l100 574q6 39 9.5 68t3.5 50q0 70 -44 104t-145 44l16 94h523l-17 -94q-100 -12 -151 -63.5t-70 -161.5l-100 -576 q-50 -284 -201 -418.5t-422 -134.5q-242 0 -370.5 103.5t-128.5 298.5q0 33 4 73.5t12 87.5l113 640q2 18 4 33.5t2 23.5q0 49 -38 70t-140 24zM695 1720q0 46 36 82.5t83 36.5q49 0 83.5 -35t34.5 -84q0 -53 -33 -88t-85 -35q-49 0 -84 36t-35 87zM1057 1720 q0 46 36.5 82.5t82.5 36.5q50 0 85.5 -35t35.5 -84q0 -53 -34 -88t-87 -35q-49 0 -84 36t-35 87z" />
<glyph unicode="&#xdd;" horiz-adv-x="1446" d="M33 1319l16 94h809l-16 -94q-103 0 -146 -20t-43 -66q0 -17 7 -44.5t18 -56.5l162 -442l317 447q19 26 27 46.5t8 39.5q0 47 -40.5 69t-141.5 27l16 94h551l-17 -94q-65 -2 -124.5 -40.5t-112.5 -113.5l-432 -598l-58 -318q-3 -20 -4.5 -34t-1.5 -22q0 -51 39.5 -71 t155.5 -22l-16 -100h-797l16 100q120 2 162.5 32t63.5 142l47 265l-203 553q-50 135 -105.5 181t-156.5 46zM678 1556l307 306q29 27 58 41t57 14q32 0 56 -25.5t24 -60.5q0 -26 -16 -47.5t-52 -42.5l-330 -185h-104z" />
<glyph unicode="&#xde;" horiz-adv-x="1432" d="M-51 0l16 100q110 3 151.5 34t61.5 140l158 894q3 20 4.5 34t1.5 23q0 49 -38.5 70t-141.5 24l16 94h772l-16 -100q-110 -3 -151.5 -33.5t-57.5 -122.5l-6 -29h186q206 0 329.5 -99.5t123.5 -262.5q0 -202 -143.5 -318t-395.5 -116h-246l-16 -82q-3 -16 -4.5 -30 t-1.5 -27q0 -51 38 -71t146 -22l-16 -100h-770zM592 440h104q78 0 126 18.5t77 59.5q38 55 61 138t23 169q0 97 -39.5 147t-116.5 50q-67 0 -102 -30.5t-47 -100.5z" />
<glyph unicode="&#xdf;" horiz-adv-x="1251" d="M-326 -207q0 57 36 94t91 37q49 0 82 -32.5t33 -79.5q0 -31 -13 -56.5t-40 -50.5q20 -11 34.5 -15.5t26.5 -4.5q107 0 231 774q23 141 35 219q77 462 211.5 639.5t389.5 177.5q178 0 285.5 -82.5t107.5 -216.5q0 -121 -90 -210t-254 -130q122 -35 190 -130.5t68 -231.5 q0 -107 -40.5 -208.5t-113.5 -181.5q-61 -65 -137 -100t-158 -35q-106 0 -168.5 49.5t-62.5 133.5q0 49 33 85.5t75 36.5q43 0 71 -28.5t28 -71.5q0 -29 -11 -50.5t-38 -44.5q8 -11 19 -17.5t23 -6.5q39 0 68 44.5t53 140.5q26 102 40 205.5t14 191.5q0 108 -33 150t-115 42 h-12l17 78q5 -1 11.5 -1.5t20.5 -0.5q107 0 164 95.5t57 275.5q0 70 -32.5 107.5t-94.5 37.5q-102 0 -161 -120t-140 -594l-24 -146q-57 -336 -95.5 -486t-85.5 -243q-60 -118 -149 -176.5t-209 -58.5q-106 0 -172 54.5t-66 141.5z" />
<glyph unicode="&#xe0;" horiz-adv-x="1239" d="M35 373q0 92 26.5 186t77.5 182q65 112 156 173t192 61q82 0 141 -35t99 -106l23 114h274l-107 -621q-9 -52 -13.5 -89t-4.5 -58q0 -29 11 -45t30 -16q36 0 74.5 53t85.5 170l80 -33q-71 -178 -150.5 -258t-185.5 -80q-84 0 -139.5 47t-73.5 134q-50 -90 -121 -135.5 t-160 -45.5q-139 0 -227 111t-88 291zM346 262q0 -80 27 -123t78 -43q50 0 90 47t75 148q34 95 53 195.5t19 187.5q0 93 -30.5 141.5t-90.5 48.5q-48 0 -85.5 -49.5t-69.5 -157.5q-31 -100 -48.5 -206t-17.5 -189zM411 1364q0 37 24 61.5t60 24.5q26 0 49 -14.5t50 -46.5 l245 -302h-104l-260 193q-35 26 -49.5 45.5t-14.5 38.5z" />
<glyph unicode="&#xe1;" horiz-adv-x="1239" d="M35 373q0 92 26.5 186t77.5 182q65 112 156 173t192 61q82 0 141 -35t99 -106l23 114h274l-107 -621q-9 -52 -13.5 -89t-4.5 -58q0 -29 11 -45t30 -16q36 0 74.5 53t85.5 170l80 -33q-71 -178 -150.5 -258t-185.5 -80q-84 0 -139.5 47t-73.5 134q-50 -90 -121 -135.5 t-160 -45.5q-139 0 -227 111t-88 291zM346 262q0 -80 27 -123t78 -43q50 0 90 47t75 148q34 95 53 195.5t19 187.5q0 93 -30.5 141.5t-90.5 48.5q-48 0 -85.5 -49.5t-69.5 -157.5q-31 -100 -48.5 -206t-17.5 -189zM473 1087l307 306q29 27 58 41t57 14q32 0 56 -25.5 t24 -60.5q0 -26 -16 -47.5t-52 -42.5l-330 -185h-104z" />
<glyph unicode="&#xe2;" horiz-adv-x="1239" d="M35 373q0 92 26.5 186t77.5 182q65 112 156 173t192 61q82 0 141 -35t99 -106l23 114h274l-107 -621q-9 -52 -13.5 -89t-4.5 -58q0 -29 11 -45t30 -16q36 0 74.5 53t85.5 170l80 -33q-71 -178 -150.5 -258t-185.5 -80q-84 0 -139.5 47t-73.5 134q-50 -90 -121 -135.5 t-160 -45.5q-139 0 -227 111t-88 291zM340 1087l307 349h127l164 -349h-80l-168 181l-246 -181h-104zM346 262q0 -80 27 -123t78 -43q50 0 90 47t75 148q34 95 53 195.5t19 187.5q0 93 -30.5 141.5t-90.5 48.5q-48 0 -85.5 -49.5t-69.5 -157.5q-31 -100 -48.5 -206 t-17.5 -189z" />
<glyph unicode="&#xe3;" horiz-adv-x="1239" d="M35 373q0 92 26.5 186t77.5 182q65 112 156 173t192 61q82 0 141 -35t99 -106l23 114h274l-107 -621q-9 -52 -13.5 -89t-4.5 -58q0 -29 11 -45t30 -16q36 0 74.5 53t85.5 170l80 -33q-71 -178 -150.5 -258t-185.5 -80q-84 0 -139.5 47t-73.5 134q-50 -90 -121 -135.5 t-160 -45.5q-139 0 -227 111t-88 291zM346 262q0 -80 27 -123t78 -43q50 0 90 47t75 148q34 95 53 195.5t19 187.5q0 93 -30.5 141.5t-90.5 48.5q-48 0 -85.5 -49.5t-69.5 -157.5q-31 -100 -48.5 -206t-17.5 -189zM397 1108q20 118 71.5 180t129.5 62q22 0 34 -1.5t24 -5.5 l87 -24q25 -6 38.5 -8t23.5 -2q43 0 67 19.5t35 64.5h66q-22 -115 -72.5 -174.5t-126.5 -59.5q-14 0 -49 7q-4 1 -6 1l-107 27q-10 3 -21 4.5t-28 1.5q-39 0 -62.5 -21.5t-37.5 -70.5h-66z" />
<glyph unicode="&#xe4;" horiz-adv-x="1239" d="M35 373q0 92 26.5 186t77.5 182q65 112 156 173t192 61q82 0 141 -35t99 -106l23 114h274l-107 -621q-9 -52 -13.5 -89t-4.5 -58q0 -29 11 -45t30 -16q36 0 74.5 53t85.5 170l80 -33q-71 -178 -150.5 -258t-185.5 -80q-84 0 -139.5 47t-73.5 134q-50 -90 -121 -135.5 t-160 -45.5q-139 0 -227 111t-88 291zM346 262q0 -80 27 -123t78 -43q50 0 90 47t75 148q34 95 53 195.5t19 187.5q0 93 -30.5 141.5t-90.5 48.5q-48 0 -85.5 -49.5t-69.5 -157.5q-31 -100 -48.5 -206t-17.5 -189zM385 1251q0 46 36 82.5t83 36.5q49 0 83.5 -35t34.5 -84 q0 -53 -33 -88t-85 -35q-49 0 -84 36t-35 87zM747 1251q0 46 36.5 82.5t82.5 36.5q50 0 85.5 -35t35.5 -84q0 -53 -34 -88t-87 -35q-49 0 -84 36t-35 87z" />
<glyph unicode="&#xe5;" horiz-adv-x="1239" d="M35 373q0 92 26.5 186t77.5 182q65 112 156 173t192 61q82 0 141 -35t99 -106l23 114h274l-107 -621q-9 -52 -13.5 -89t-4.5 -58q0 -29 11 -45t30 -16q36 0 74.5 53t85.5 170l80 -33q-71 -178 -150.5 -258t-185.5 -80q-84 0 -139.5 47t-73.5 134q-50 -90 -121 -135.5 t-160 -45.5q-139 0 -227 111t-88 291zM346 262q0 -80 27 -123t78 -43q50 0 90 47t75 148q33 90 50.5 191.5t17.5 195.5q0 93 -29.5 139.5t-87.5 46.5q-48 0 -85.5 -49.5t-69.5 -157.5q-31 -100 -48.5 -206t-17.5 -189zM399 1321q0 106 73 179t179 73t179 -73t73 -179 t-73 -179t-179 -73t-179 73t-73 179zM510 1321q0 -60 40.5 -100.5t100.5 -40.5t101 40.5t41 100.5q0 59 -41.5 100t-100.5 41q-60 0 -100.5 -40.5t-40.5 -100.5z" />
<glyph unicode="&#xe6;" horiz-adv-x="1636" d="M35 373q0 92 26.5 186t77.5 182q66 113 157 174.5t191 61.5q82 0 141 -35.5t99 -107.5l25 129h217l-21 -109q64 63 139 93t173 30q135 0 221 -67t86 -169q0 -149 -157.5 -238.5t-475.5 -121.5q-1 -10 -1.5 -22t-0.5 -33q0 -114 48.5 -177t135.5 -63q69 0 137 35t131 102 l62 -51q-83 -101 -187 -151t-233 -50q-128 0 -223.5 57t-151.5 167q-47 -109 -124 -166.5t-175 -57.5q-139 0 -228 111.5t-89 290.5zM346 262q0 -80 27 -123t78 -43q50 0 90 47t75 148q33 90 50.5 191.5t17.5 195.5q0 93 -29.5 139.5t-87.5 46.5q-48 0 -85.5 -49.5 t-69.5 -157.5q-31 -100 -48.5 -206t-17.5 -189zM942 465q174 15 275.5 98.5t101.5 210.5q0 58 -30.5 90.5t-84.5 32.5q-86 0 -160.5 -120t-101.5 -312z" />
<glyph unicode="&#xe7;" horiz-adv-x="981" d="M27 430q0 101 43 200t120 177q82 82 182.5 126t205.5 44q138 0 235.5 -72t97.5 -170q0 -64 -42 -107.5t-105 -43.5q-59 0 -98 35.5t-39 89.5q0 45 26.5 77.5t77.5 47.5q-30 30 -61.5 44.5t-65.5 14.5q-46 0 -84 -25.5t-69 -76.5q-49 -83 -81 -214t-32 -253 q0 -118 45 -181t129 -63q65 0 129.5 37.5t128.5 111.5l64 -47q-78 -105 -175 -158t-213 -53q-180 0 -299.5 130.5t-119.5 328.5zM143 -377l41 90q77 -41 133 -58t107 -17q47 0 71.5 22t24.5 66q0 39 -27 60t-77 21q-16 0 -39 -3t-51 -9l67 205h70l-35 -114q16 2 33 3.5 t33 1.5q85 0 134.5 -45.5t49.5 -124.5q0 -84 -60 -132t-167 -48q-59 0 -133 19.5t-175 62.5z" />
<glyph unicode="&#xe8;" horiz-adv-x="1044" d="M25 379q0 120 50.5 233.5t141.5 198.5q85 80 195 123t231 43q150 0 242 -66t92 -170q0 -148 -158.5 -238t-476.5 -122q-1 -10 -1.5 -21.5t-0.5 -33.5q0 -114 49 -177t137 -63q70 0 138 35t131 102l61 -51q-81 -100 -183.5 -150.5t-223.5 -50.5q-194 0 -309 111.5 t-115 296.5zM352 465q175 15 276 98.5t101 210.5q0 58 -30 90.5t-85 32.5q-86 0 -160.5 -120t-101.5 -312zM383 1364q0 37 24 61.5t60 24.5q26 0 49 -14.5t50 -46.5l245 -302h-104l-260 193q-35 26 -49.5 45.5t-14.5 38.5z" />
<glyph unicode="&#xe9;" horiz-adv-x="1044" d="M25 379q0 120 50.5 233.5t141.5 198.5q85 80 195 123t231 43q150 0 242 -66t92 -170q0 -148 -158.5 -238t-476.5 -122q-1 -10 -1.5 -21.5t-0.5 -33.5q0 -114 49 -177t137 -63q70 0 138 35t131 102l61 -51q-81 -100 -183.5 -150.5t-223.5 -50.5q-194 0 -309 111.5 t-115 296.5zM352 465q175 15 276 98.5t101 210.5q0 58 -30 90.5t-85 32.5q-86 0 -160.5 -120t-101.5 -312zM445 1087l307 306q29 27 58 41t57 14q32 0 56 -25.5t24 -60.5q0 -26 -16 -47.5t-52 -42.5l-330 -185h-104z" />
<glyph unicode="&#xea;" horiz-adv-x="1044" d="M25 379q0 120 50.5 233.5t141.5 198.5q85 80 195 123t231 43q150 0 242 -66t92 -170q0 -148 -158.5 -238t-476.5 -122q-1 -10 -1.5 -21.5t-0.5 -33.5q0 -114 49 -177t137 -63q70 0 138 35t131 102l61 -51q-81 -100 -183.5 -150.5t-223.5 -50.5q-194 0 -309 111.5 t-115 296.5zM312 1087l307 349h127l164 -349h-80l-168 181l-246 -181h-104zM352 465q175 15 276 98.5t101 210.5q0 58 -30 90.5t-85 32.5q-86 0 -160.5 -120t-101.5 -312z" />
<glyph unicode="&#xeb;" horiz-adv-x="1044" d="M25 379q0 120 50.5 233.5t141.5 198.5q85 80 195 123t231 43q150 0 242 -66t92 -170q0 -148 -158.5 -238t-476.5 -122q-1 -10 -1.5 -21.5t-0.5 -33.5q0 -114 49 -177t137 -63q70 0 138 35t131 102l61 -51q-81 -100 -183.5 -150.5t-223.5 -50.5q-194 0 -309 111.5 t-115 296.5zM352 465q175 15 276 98.5t101 210.5q0 58 -30 90.5t-85 32.5q-86 0 -160.5 -120t-101.5 -312zM357 1251q0 46 36 82.5t83 36.5q49 0 83.5 -35t34.5 -84q0 -53 -33 -88t-85 -35q-49 0 -84 36t-35 87zM719 1251q0 46 36.5 82.5t82.5 36.5q50 0 85.5 -35t35.5 -84 q0 -53 -34 -88t-87 -35q-49 0 -84 36t-35 87z" />
<glyph unicode="&#xec;" horiz-adv-x="782" d="M-12 641q70 177 148.5 255.5t182.5 78.5q103 0 160.5 -70t57.5 -194q0 -44 -9 -96.5t-28 -125.5l-47 -176q-10 -35 -15.5 -66t-5.5 -54q0 -33 14 -51.5t39 -18.5q42 0 81.5 57.5t82.5 179.5l76 -36q-48 -174 -130 -260.5t-200 -86.5q-111 0 -174 68t-63 188q0 80 47 267 q5 21 8 32l37 146l2 9q16 64 16 85q0 26 -11.5 42.5t-29.5 16.5q-35 0 -70 -47.5t-89 -175.5zM194 1364q0 37 24 61.5t60 24.5q26 0 49 -14.5t50 -46.5l245 -302h-104l-260 193q-35 26 -49.5 45.5t-14.5 38.5z" />
<glyph unicode="&#xed;" horiz-adv-x="782" d="M-12 641q70 177 148.5 255.5t182.5 78.5q103 0 160.5 -70t57.5 -194q0 -44 -9 -96.5t-28 -125.5l-47 -176q-10 -35 -15.5 -66t-5.5 -54q0 -33 14 -51.5t39 -18.5q42 0 81.5 57.5t82.5 179.5l76 -36q-48 -174 -130 -260.5t-200 -86.5q-111 0 -174 68t-63 188q0 80 47 267 q5 21 8 32l37 146l2 9q16 64 16 85q0 26 -11.5 42.5t-29.5 16.5q-35 0 -70 -47.5t-89 -175.5zM256 1087l307 306q29 27 58 41t57 14q32 0 56 -25.5t24 -60.5q0 -26 -16 -47.5t-52 -42.5l-330 -185h-104z" />
<glyph unicode="&#xee;" horiz-adv-x="782" d="M-12 641q70 177 148.5 255.5t182.5 78.5q103 0 160.5 -70t57.5 -194q0 -44 -9 -96.5t-28 -125.5l-47 -176q-10 -35 -15.5 -66t-5.5 -54q0 -33 14 -51.5t39 -18.5q42 0 81.5 57.5t82.5 179.5l76 -36q-48 -174 -130 -260.5t-200 -86.5q-111 0 -174 68t-63 188q0 80 47 267 q5 21 8 32l37 146l2 9q16 64 16 85q0 26 -11.5 42.5t-29.5 16.5q-35 0 -70 -47.5t-89 -175.5zM123 1087l307 349h127l164 -349h-80l-168 181l-246 -181h-104z" />
<glyph unicode="&#xef;" horiz-adv-x="782" d="M-12 641q70 177 148.5 255.5t182.5 78.5q103 0 160.5 -70t57.5 -194q0 -44 -9 -96.5t-28 -125.5l-47 -176q-10 -35 -15.5 -66t-5.5 -54q0 -33 14 -51.5t39 -18.5q42 0 81.5 57.5t82.5 179.5l76 -36q-48 -174 -130 -260.5t-200 -86.5q-111 0 -174 68t-63 188q0 80 47 267 q5 21 8 32l37 146l2 9q16 64 16 85q0 26 -11.5 42.5t-29.5 16.5q-35 0 -70 -47.5t-89 -175.5zM168 1251q0 46 36 82.5t83 36.5q49 0 83.5 -35t34.5 -84q0 -53 -33 -88t-85 -35q-49 0 -84 36t-35 87zM530 1251q0 46 36.5 82.5t82.5 36.5q50 0 85.5 -35t35.5 -84 q0 -53 -34 -88t-87 -35q-49 0 -84 36t-35 87z" />
<glyph unicode="&#xf0;" horiz-adv-x="1114" d="M23 391q0 113 41 213.5t124 190.5q80 86 183 134t207 48q24 0 47 -5t47 -16q-14 54 -31 102t-39 91l-252 -127l-37 68l254 129q-23 41 -123 183l-26 38l65 53q51 -38 106.5 -89.5t115.5 -117.5l241 119l39 -66l-227 -112q125 -160 187.5 -321.5t62.5 -323.5 q0 -105 -28.5 -196t-84.5 -167q-87 -119 -207 -183.5t-256 -64.5q-183 0 -296 116t-113 304zM334 215q0 -74 29 -115t81 -41q48 0 88 36t64 100q19 52 36.5 122.5t33.5 153.5q18 100 27 172t9 117q0 64 -30 102.5t-80 38.5q-54 0 -93.5 -40.5t-66.5 -123.5 q-46 -142 -72 -283t-26 -239z" />
<glyph unicode="&#xf1;" horiz-adv-x="1335" d="M-18 641q67 170 145 250t178 80q99 0 149.5 -62.5t59.5 -193.5q60 125 146.5 190.5t193.5 65.5q113 0 175.5 -69.5t62.5 -194.5q0 -42 -8 -89t-29 -122l-51 -183q-15 -52 -21 -81.5t-6 -45.5q0 -29 15.5 -46t41.5 -17q44 0 83 56t81 181l80 -36q-51 -176 -132.5 -261.5 t-199.5 -85.5q-111 0 -174 68t-63 188q0 54 12.5 126.5t40.5 172.5l35 125q11 41 16.5 72t5.5 55q0 29 -18 48.5t-45 19.5q-111 0 -193 -203t-151 -649h-293l78 393l8 43q57 277 57 334q0 29 -10.5 45t-30.5 16q-35 0 -70 -47.5t-90 -175.5zM457 1108q20 118 71.5 180 t129.5 62q22 0 34 -1.5t24 -5.5l87 -24q25 -6 38.5 -8t23.5 -2q43 0 67 19.5t35 64.5h66q-22 -115 -72.5 -174.5t-126.5 -59.5q-14 0 -49 7q-4 1 -6 1l-107 27q-10 3 -21 4.5t-28 1.5q-39 0 -62.5 -21.5t-37.5 -70.5h-66z" />
<glyph unicode="&#xf2;" horiz-adv-x="1114" d="M23 395q0 111 41 211t124 189q84 89 188 136.5t218 47.5q187 0 300.5 -114t113.5 -302q0 -121 -46.5 -228t-136.5 -196q-82 -82 -182.5 -125t-210.5 -43q-184 0 -296.5 116.5t-112.5 307.5zM334 215q0 -75 28.5 -115.5t81.5 -40.5q48 0 88 36t64 100q17 44 34 111.5 t36 164.5q18 91 27 165.5t9 123.5q0 64 -30 102.5t-80 38.5q-54 0 -94 -41.5t-68 -128.5q-45 -137 -70.5 -277.5t-25.5 -238.5zM383 1364q0 37 24 61.5t60 24.5q26 0 49 -14.5t50 -46.5l245 -302h-104l-260 193q-35 26 -49.5 45.5t-14.5 38.5z" />
<glyph unicode="&#xf3;" horiz-adv-x="1114" d="M23 395q0 111 41 211t124 189q84 89 188 136.5t218 47.5q187 0 300.5 -114t113.5 -302q0 -121 -46.5 -228t-136.5 -196q-82 -82 -182.5 -125t-210.5 -43q-184 0 -296.5 116.5t-112.5 307.5zM334 215q0 -75 28.5 -115.5t81.5 -40.5q48 0 88 36t64 100q17 44 34 111.5 t36 164.5q18 91 27 165.5t9 123.5q0 64 -30 102.5t-80 38.5q-54 0 -94 -41.5t-68 -128.5q-45 -137 -70.5 -277.5t-25.5 -238.5zM445 1087l307 306q29 27 58 41t57 14q32 0 56 -25.5t24 -60.5q0 -26 -16 -47.5t-52 -42.5l-330 -185h-104z" />
<glyph unicode="&#xf4;" horiz-adv-x="1114" d="M23 395q0 111 41 211t124 189q84 89 188 136.5t218 47.5q187 0 300.5 -114t113.5 -302q0 -121 -46.5 -228t-136.5 -196q-82 -82 -182.5 -125t-210.5 -43q-184 0 -296.5 116.5t-112.5 307.5zM312 1087l307 349h127l164 -349h-80l-168 181l-246 -181h-104zM334 215 q0 -75 28.5 -115.5t81.5 -40.5q48 0 88 36t64 100q17 44 34 111.5t36 164.5q18 91 27 165.5t9 123.5q0 64 -30 102.5t-80 38.5q-54 0 -94 -41.5t-68 -128.5q-45 -137 -70.5 -277.5t-25.5 -238.5z" />
<glyph unicode="&#xf5;" horiz-adv-x="1114" d="M23 395q0 111 41 211t124 189q84 89 188 136.5t218 47.5q187 0 300.5 -114t113.5 -302q0 -121 -46.5 -228t-136.5 -196q-82 -82 -182.5 -125t-210.5 -43q-184 0 -296.5 116.5t-112.5 307.5zM334 215q0 -75 28.5 -115.5t81.5 -40.5q48 0 88 36t64 100q17 44 34 111.5 t36 164.5q18 91 27 165.5t9 123.5q0 64 -30 102.5t-80 38.5q-54 0 -94 -41.5t-68 -128.5q-45 -137 -70.5 -277.5t-25.5 -238.5zM369 1108q20 118 71.5 180t129.5 62q22 0 34 -1.5t24 -5.5l87 -24q25 -6 38.5 -8t23.5 -2q43 0 67 19.5t35 64.5h66q-22 -115 -72.5 -174.5 t-126.5 -59.5q-14 0 -49 7q-4 1 -6 1l-107 27q-10 3 -21 4.5t-28 1.5q-39 0 -62.5 -21.5t-37.5 -70.5h-66z" />
<glyph unicode="&#xf6;" horiz-adv-x="1114" d="M23 395q0 111 41 211t124 189q84 89 188 136.5t218 47.5q187 0 300.5 -114t113.5 -302q0 -121 -46.5 -228t-136.5 -196q-82 -82 -182.5 -125t-210.5 -43q-184 0 -296.5 116.5t-112.5 307.5zM334 215q0 -75 28.5 -115.5t81.5 -40.5q48 0 88 36t64 100q17 44 34 111.5 t36 164.5q18 91 27 165.5t9 123.5q0 64 -30 102.5t-80 38.5q-54 0 -94 -41.5t-68 -128.5q-45 -137 -70.5 -277.5t-25.5 -238.5zM357 1251q0 46 36 82.5t83 36.5q49 0 83.5 -35t34.5 -84q0 -53 -33 -88t-85 -35q-49 0 -84 36t-35 87zM719 1251q0 46 36.5 82.5t82.5 36.5 q50 0 85.5 -35t35.5 -84q0 -53 -34 -88t-87 -35q-49 0 -84 36t-35 87z" />
<glyph unicode="&#xf7;" horiz-adv-x="1706" d="M254 496v231h1198v-231h-1198zM688 205q0 68 49 117t117 49t116 -48.5t48 -117.5q0 -68 -47.5 -116t-116.5 -48t-117.5 48t-48.5 116zM688 1016q0 68 49 117t117 49q67 0 115.5 -49t48.5 -117t-48.5 -116t-117.5 -48t-116.5 48t-47.5 116z" />
<glyph unicode="&#xf8;" horiz-adv-x="1114" d="M20 389q0 111 43 214t125 192q84 90 187 136t221 46q24 0 53.5 -3t65.5 -9l141 270h90l-153 -301q104 -52 159.5 -146.5t55.5 -222.5q0 -115 -42.5 -219.5t-125.5 -193.5q-79 -85 -184 -132t-216 -47q-26 0 -59.5 4t-77.5 13l-149 -295h-93l168 325q-99 52 -154 148.5 t-55 220.5zM328 209l342 665q-16 15 -34.5 22t-41.5 7q-107 0 -171.5 -168.5t-94.5 -525.5zM362 98q19 -20 38.5 -29.5t43.5 -9.5q110 0 175.5 179t89.5 542z" />
<glyph unicode="&#xf9;" horiz-adv-x="1335" d="M-27 625q51 176 132.5 261t199.5 85q109 0 171.5 -68t62.5 -188q0 -51 -13.5 -125.5t-40.5 -173.5l-32 -121q-15 -51 -20 -78.5t-5 -48.5q0 -28 19 -47t47 -19q110 0 192.5 201.5t151.5 644.5h292l-79 -393q-39 -191 -51.5 -266t-12.5 -111q0 -30 11 -46.5t30 -16.5 q35 0 70 47.5t90 177.5l80 -33q-70 -174 -147 -255t-173 -81q-100 0 -155 67.5t-58 194.5q-60 -127 -147.5 -194.5t-192.5 -67.5q-111 0 -174 72t-63 199q0 41 8 88t29 123l51 182q14 52 20 81.5t6 45.5q0 29 -15.5 46t-41.5 17q-44 0 -83 -56t-81 -181zM448 1364 q0 37 24 61.5t60 24.5q26 0 49 -14.5t50 -46.5l245 -302h-104l-260 193q-35 26 -49.5 45.5t-14.5 38.5z" />
<glyph unicode="&#xfa;" horiz-adv-x="1335" d="M-27 625q51 176 132.5 261t199.5 85q109 0 171.5 -68t62.5 -188q0 -51 -13.5 -125.5t-40.5 -173.5l-32 -121q-15 -51 -20 -78.5t-5 -48.5q0 -28 19 -47t47 -19q110 0 192.5 201.5t151.5 644.5h292l-79 -393q-39 -191 -51.5 -266t-12.5 -111q0 -30 11 -46.5t30 -16.5 q35 0 70 47.5t90 177.5l80 -33q-70 -174 -147 -255t-173 -81q-100 0 -155 67.5t-58 194.5q-60 -127 -147.5 -194.5t-192.5 -67.5q-111 0 -174 72t-63 199q0 41 8 88t29 123l51 182q14 52 20 81.5t6 45.5q0 29 -15.5 46t-41.5 17q-44 0 -83 -56t-81 -181zM510 1087l307 306 q29 27 58 41t57 14q32 0 56 -25.5t24 -60.5q0 -26 -16 -47.5t-52 -42.5l-330 -185h-104z" />
<glyph unicode="&#xfb;" horiz-adv-x="1335" d="M-27 625q51 176 132.5 261t199.5 85q109 0 171.5 -68t62.5 -188q0 -51 -13.5 -125.5t-40.5 -173.5l-32 -121q-15 -51 -20 -78.5t-5 -48.5q0 -28 19 -47t47 -19q110 0 192.5 201.5t151.5 644.5h292l-79 -393q-39 -191 -51.5 -266t-12.5 -111q0 -30 11 -46.5t30 -16.5 q35 0 70 47.5t90 177.5l80 -33q-70 -174 -147 -255t-173 -81q-100 0 -155 67.5t-58 194.5q-60 -127 -147.5 -194.5t-192.5 -67.5q-111 0 -174 72t-63 199q0 41 8 88t29 123l51 182q14 52 20 81.5t6 45.5q0 29 -15.5 46t-41.5 17q-44 0 -83 -56t-81 -181zM377 1087l307 349 h127l164 -349h-80l-168 181l-246 -181h-104z" />
<glyph unicode="&#xfc;" horiz-adv-x="1335" d="M-27 625q51 176 132.5 261t199.5 85q109 0 171.5 -68t62.5 -188q0 -51 -13.5 -125.5t-40.5 -173.5l-32 -121q-15 -51 -20 -78.5t-5 -48.5q0 -28 19 -47t47 -19q110 0 192.5 201.5t151.5 644.5h292l-79 -393q-39 -191 -51.5 -266t-12.5 -111q0 -30 11 -46.5t30 -16.5 q35 0 70 47.5t90 177.5l80 -33q-70 -174 -147 -255t-173 -81q-100 0 -155 67.5t-58 194.5q-60 -127 -147.5 -194.5t-192.5 -67.5q-111 0 -174 72t-63 199q0 41 8 88t29 123l51 182q14 52 20 81.5t6 45.5q0 29 -15.5 46t-41.5 17q-44 0 -83 -56t-81 -181zM422 1251 q0 46 36 82.5t83 36.5q49 0 83.5 -35t34.5 -84q0 -53 -33 -88t-85 -35q-49 0 -84 36t-35 87zM784 1251q0 46 36.5 82.5t82.5 36.5q50 0 85.5 -35t35.5 -84q0 -53 -34 -88t-87 -35q-49 0 -84 36t-35 87z" />
<glyph unicode="&#xfd;" horiz-adv-x="1229" d="M-27 625q51 176 132.5 261t199.5 85q109 0 171.5 -68t62.5 -188q0 -57 -14 -133.5t-40 -165.5l-28 -101q-12 -43 -17.5 -73t-5.5 -52q0 -28 18.5 -47.5t45.5 -19.5q110 0 192.5 199.5t147.5 625.5h292l-141 -815q-48 -279 -185.5 -409t-383.5 -130q-160 0 -249 54 t-89 149q0 59 38.5 98t96.5 39q55 0 92 -32t37 -78q0 -32 -11 -56t-31 -41q18 -23 48 -33.5t76 -10.5q121 0 188 120t107 420q-58 -109 -140.5 -166t-183.5 -57q-113 0 -175 68.5t-62 193.5q0 44 8.5 94t28.5 117l47 162q15 56 20.5 83t5.5 44q0 29 -15.5 46t-41.5 17 q-44 0 -83 -56t-81 -181zM479 1087l307 306q29 27 58 41t57 14q32 0 56 -25.5t24 -60.5q0 -26 -16 -47.5t-52 -42.5l-330 -185h-104z" />
<glyph unicode="&#xfe;" horiz-adv-x="1124" d="M-195 -403l15 77q85 0 116 24t48 120l241 1376q4 20 6 37t2 29q0 57 -37 80.5t-159 31.5l12 67q107 2 233 15.5t275 38.5l-115 -655q48 70 110 105.5t136 35.5q140 0 225.5 -106.5t85.5 -282.5q0 -266 -127.5 -440.5t-318.5 -174.5q-86 0 -148.5 39t-80.5 103l-56 -324 q0 -5 -3 -20.5t-3 -22.5q0 -40 32.5 -56t129.5 -20l-12 -77h-607zM356 276q0 -93 29.5 -139.5t87.5 -46.5q49 0 86.5 49.5t69.5 157.5q31 103 48 207t17 186t-27 125t-77 43q-49 0 -87.5 -45.5t-76.5 -148.5q-33 -92 -51.5 -193.5t-18.5 -194.5z" />
<glyph unicode="&#xff;" horiz-adv-x="1229" d="M-27 625q51 176 132.5 261t199.5 85q109 0 171.5 -68t62.5 -188q0 -57 -14 -133.5t-40 -165.5l-28 -101q-12 -43 -17.5 -73t-5.5 -52q0 -28 18.5 -47.5t45.5 -19.5q110 0 192.5 199.5t147.5 625.5h292l-141 -815q-48 -279 -185.5 -409t-383.5 -130q-160 0 -249 54 t-89 149q0 59 38.5 98t96.5 39q55 0 92 -32t37 -78q0 -32 -11 -56t-31 -41q18 -23 48 -33.5t76 -10.5q121 0 188 120t107 420q-58 -109 -140.5 -166t-183.5 -57q-113 0 -175 68.5t-62 193.5q0 44 8.5 94t28.5 117l47 162q15 56 20.5 83t5.5 44q0 29 -15.5 46t-41.5 17 q-44 0 -83 -56t-81 -181zM391 1251q0 46 36 82.5t83 36.5q49 0 83.5 -35t34.5 -84q0 -53 -33 -88t-85 -35q-49 0 -84 36t-35 87zM753 1251q0 46 36.5 82.5t82.5 36.5q50 0 85.5 -35t35.5 -84q0 -53 -34 -88t-87 -35q-49 0 -84 36t-35 87z" />
<glyph unicode="&#x152;" horiz-adv-x="2210" d="M80 588q0 200 88 376t250 300q102 78 225.5 113.5t296.5 35.5h1004q56 0 105 3.5t91 10.5l-47 -483l-102 6q-10 208 -80 281.5t-260 73.5q-94 0 -129.5 -22.5t-44.5 -80.5l-72 -405h27q102 0 156.5 51.5t82.5 175.5h107q-40 -204 -65.5 -349.5t-41.5 -260.5h-104 q3 52 4.5 81t1.5 37q0 84 -40 121t-130 37h-17l-73 -414q-4 -23 -6 -43.5t-2 -33.5q0 -47 29.5 -65.5t105.5 -18.5q198 0 313 79t184 263h111l-109 -457h-1230q-308 0 -468.5 150.5t-160.5 437.5zM455 401q0 -145 63 -222t182 -77q115 0 171 52t79 186l125 702 q3 21 4.5 42.5t1.5 41.5q0 95 -50.5 144t-147.5 49q-107 0 -183 -58t-116 -169q-21 -57 -41.5 -136.5t-40.5 -185.5q-25 -132 -36 -219t-11 -150z" />
<glyph unicode="&#x153;" horiz-adv-x="1645" d="M23 391q0 113 41 213.5t124 190.5q84 89 187 136.5t215 47.5q88 0 163 -28.5t136 -84.5q83 56 171.5 84.5t178.5 28.5q151 0 244.5 -66.5t93.5 -171.5q0 -148 -158.5 -238t-476.5 -123q-1 -9 -1.5 -20.5t-0.5 -33.5q0 -114 49 -177t137 -63q70 0 138 35t131 102l61 -51 q-83 -101 -185.5 -151t-228.5 -50q-91 0 -164 26.5t-126 78.5q-77 -53 -153.5 -79t-158.5 -26q-189 0 -303 115t-114 305zM334 215q0 -75 28.5 -115.5t81.5 -40.5q48 0 88 36t64 100q17 44 34 111.5t36 164.5q18 91 27 165.5t9 123.5q0 64 -30 102.5t-80 38.5 q-54 0 -94 -41.5t-68 -128.5q-45 -137 -70.5 -277.5t-25.5 -238.5zM952 465q175 15 276 98.5t101 210.5q0 59 -30.5 93t-84.5 34q-86 0 -160.5 -121.5t-101.5 -314.5z" />
<glyph unicode="&#x178;" horiz-adv-x="1446" d="M33 1319l16 94h809l-16 -94q-103 0 -146 -20t-43 -66q0 -17 7 -44.5t18 -56.5l162 -442l317 447q19 26 27 46.5t8 39.5q0 47 -40.5 69t-141.5 27l16 94h551l-17 -94q-65 -2 -124.5 -40.5t-112.5 -113.5l-432 -598l-58 -318q-3 -20 -4.5 -34t-1.5 -22q0 -51 39.5 -71 t155.5 -22l-16 -100h-797l16 100q120 2 162.5 32t63.5 142l47 265l-203 553q-50 135 -105.5 181t-156.5 46zM590 1720q0 46 36 82.5t83 36.5q49 0 83.5 -35t34.5 -84q0 -53 -33 -88t-85 -35q-49 0 -84 36t-35 87zM952 1720q0 46 36.5 82.5t82.5 36.5q50 0 85.5 -35t35.5 -84 q0 -53 -34 -88t-87 -35q-49 0 -84 36t-35 87z" />
<glyph unicode="&#x2c6;" d="M244 1087l307 349h127l164 -349h-80l-168 181l-246 -181h-104z" />
<glyph unicode="&#x2dc;" d="M301 1108q20 118 71.5 180t129.5 62q22 0 34 -1.5t24 -5.5l87 -24q25 -6 38.5 -8t23.5 -2q43 0 67 19.5t35 64.5h66q-22 -115 -72.5 -174.5t-126.5 -59.5q-14 0 -49 7q-4 1 -6 1l-107 27q-10 3 -21 4.5t-28 1.5q-39 0 -62.5 -21.5t-37.5 -70.5h-66z" />
<glyph unicode="&#x2000;" horiz-adv-x="986" />
<glyph unicode="&#x2001;" horiz-adv-x="1972" />
<glyph unicode="&#x2002;" horiz-adv-x="986" />
<glyph unicode="&#x2003;" horiz-adv-x="1972" />
<glyph unicode="&#x2004;" horiz-adv-x="657" />
<glyph unicode="&#x2005;" horiz-adv-x="493" />
<glyph unicode="&#x2006;" horiz-adv-x="328" />
<glyph unicode="&#x2007;" horiz-adv-x="328" />
<glyph unicode="&#x2008;" horiz-adv-x="246" />
<glyph unicode="&#x2009;" horiz-adv-x="394" />
<glyph unicode="&#x200a;" horiz-adv-x="109" />
<glyph unicode="&#x2010;" horiz-adv-x="688" d="M6 344l47 260h543l-47 -260h-543z" />
<glyph unicode="&#x2011;" horiz-adv-x="688" d="M6 344l47 260h543l-47 -260h-543z" />
<glyph unicode="&#x2012;" horiz-adv-x="688" d="M6 344l47 260h543l-47 -260h-543z" />
<glyph unicode="&#x2013;" d="M-57 379l34 190h1024l-32 -190h-1026z" />
<glyph unicode="&#x2014;" horiz-adv-x="2048" d="M-59 379l32 190h2048l-32 -190h-2048z" />
<glyph unicode="&#x2018;" horiz-adv-x="530" d="M117 971q0 160 99 282.5t286 192.5l26 -60q-143 -56 -212.5 -131.5t-69.5 -175.5v-16q14 3 27 4.5t26 1.5q70 0 113 -43t43 -113q0 -64 -45 -109.5t-109 -45.5q-82 0 -133 59t-51 154z" />
<glyph unicode="&#x2019;" horiz-adv-x="530" d="M123 819q143 56 213 132t70 175l-1 17q-13 -3 -26.5 -4.5t-26.5 -1.5q-70 0 -112.5 42t-42.5 111q0 65 45.5 110.5t109.5 45.5q82 0 133.5 -58.5t51.5 -152.5q0 -161 -99.5 -284.5t-285.5 -192.5z" />
<glyph unicode="&#x201a;" horiz-adv-x="530" d="M-39 -338q143 56 213 132.5t70 176.5v16q-13 -2 -26.5 -3.5t-27.5 -1.5q-71 0 -114 41.5t-43 111.5q0 65 45.5 110.5t109.5 45.5q82 0 133.5 -59t51.5 -154q0 -160 -99.5 -283t-285.5 -192z" />
<glyph unicode="&#x201c;" horiz-adv-x="1020" d="M121 971q0 160 99 282.5t286 192.5l26 -60q-143 -56 -212.5 -131.5t-69.5 -175.5v-16q14 3 27.5 4.5t25.5 1.5q70 0 114 -43t44 -113q0 -64 -45.5 -109.5t-110.5 -45.5q-82 0 -133 59t-51 154zM610 971q0 159 100 282t287 193l27 -60q-144 -56 -213.5 -131.5 t-69.5 -175.5l1 -16q13 3 26.5 4.5t26.5 1.5q70 0 112.5 -43t42.5 -113q0 -64 -45.5 -109.5t-109.5 -45.5q-82 0 -133.5 59t-51.5 154z" />
<glyph unicode="&#x201d;" horiz-adv-x="1020" d="M115 819q142 56 211 131.5t69 175.5v16q-13 -2 -26.5 -3.5t-26.5 -1.5q-70 0 -113 42t-43 111q0 65 46 110.5t110 45.5q82 0 133 -58.5t51 -152.5q0 -161 -99.5 -284.5t-285.5 -192.5zM604 819q144 56 213.5 132t69.5 175v16q-13 -2 -26.5 -3.5t-26.5 -1.5 q-71 0 -113.5 42t-42.5 111q0 65 45.5 110.5t110.5 45.5q82 0 133 -58.5t51 -152.5q0 -161 -99.5 -284.5t-285.5 -192.5z" />
<glyph unicode="&#x201e;" horiz-adv-x="1020" d="M-51 -338q143 56 212.5 132.5t69.5 176.5v17q-13 -3 -26.5 -4.5t-26.5 -1.5q-71 0 -114.5 41.5t-43.5 111.5q0 65 46 110.5t110 45.5q82 0 133 -59t51 -154q0 -160 -99 -283t-286 -192zM440 -338q143 56 213 132.5t70 176.5v16q-13 -2 -26.5 -3.5t-26.5 -1.5 q-72 0 -115 41.5t-43 111.5q0 65 45.5 110.5t110.5 45.5q81 0 132.5 -59t51.5 -154q0 -160 -99 -283t-286 -192z" />
<glyph unicode="&#x2022;" horiz-adv-x="1208" d="M307 762q0 123 87 209t210 86q122 0 208.5 -86.5t86.5 -208.5t-87.5 -209.5t-209.5 -87.5q-123 0 -209 87t-86 210z" />
<glyph unicode="&#x2026;" horiz-adv-x="2048" d="M113 143q0 67 47.5 113.5t114.5 46.5t113 -46t46 -114t-46 -114.5t-113 -46.5q-66 0 -114 47.5t-48 113.5zM795 143q0 67 47.5 113.5t114.5 46.5t113 -46t46 -114t-46 -114.5t-113 -46.5q-66 0 -114 47.5t-48 113.5zM1479 143q0 67 47.5 113.5t114.5 46.5t113 -46 t46 -114t-46 -114.5t-113 -46.5q-66 0 -114 47.5t-48 113.5z" />
<glyph unicode="&#x202f;" horiz-adv-x="394" />
<glyph unicode="&#x2039;" horiz-adv-x="782" d="M156 483l168 133q78 64 166 144t100 80t20 -6.5t8 -14.5q0 -23 -51 -91.5t-133 -152.5l-92 -92l35 -88q51 -129 72.5 -191t21.5 -79q0 -8 -6.5 -13.5t-15.5 -5.5q-13 0 -80 98.5t-131 178.5z" />
<glyph unicode="&#x203a;" horiz-adv-x="782" d="M82 127q0 23 51 91.5t133 152.5l92 94l-36 88q-48 120 -70.5 185t-22.5 83q0 8 7 14.5t16 6.5q12 0 79.5 -98.5t131.5 -178.5l80 -100l-166 -135q-79 -63 -167 -143.5t-99 -80.5q-12 0 -20.5 6.5t-8.5 14.5z" />
<glyph unicode="&#x205f;" horiz-adv-x="493" />
<glyph unicode="&#x20ac;" horiz-adv-x="1063" d="M-14 549l34 78h138q4 41 10 81.5t14 79.5h-153l34 78h140q21 71 53 138.5t80 140.5q86 129 192.5 195.5t223.5 66.5q105 0 222 -67q26 -15 32 -15q12 0 21 11t17 36q9 21 11 33h59l-61 -455l-78 1q-9 172 -58.5 268t-130.5 96q-62 0 -114 -61.5t-94 -184.5 q-17 -47 -32.5 -101.5t-25.5 -101.5h420l-37 -78h-399q-7 -32 -15.5 -84.5t-11.5 -76.5h352l-34 -78h-328q-2 -19 -4 -41.5t-4 -60.5q-1 -14 -1.5 -30.5t-0.5 -45.5q0 -133 36.5 -204t104.5 -71q76 0 139.5 50.5t139.5 168.5l67 -63q-98 -154 -189.5 -220.5t-199.5 -66.5 q-179 0 -293.5 148.5t-114.5 386.5q0 8 1.5 24.5t1.5 24.5h-164z" />
<glyph unicode="&#x2122;" horiz-adv-x="1683" d="M217 1262l12 198h457l12 -198h-36q-7 79 -38 116t-92 37v-420q1 -22 8.5 -34t23.5 -15l30 -6v-33h-272v33l30 6q15 3 23 15.5t8 33.5v420h-4q-58 0 -89.5 -38t-37.5 -115h-35zM745 907v33l35 6q18 4 26.5 16t8.5 33v375q0 21 -9 33.5t-25 15.5l-36 6v35h222l127 -356 l123 356h206v-26l-22 -7q-19 -4 -27 -15t-8 -34v-383q0 -22 8 -33t27 -16l22 -6v-33h-260v33l30 6q18 3 27 15.5t9 33.5v355l-148 -445h-43l-166 457v-367q0 -22 9 -34t27 -15l34 -6v-33h-197z" />
<glyph unicode="&#x25fc;" horiz-adv-x="975" d="M0 0v975h975v-975h-975z" />
<glyph unicode="&#xfb01;" horiz-adv-x="1374" d="M-311 -205q0 55 36.5 92t90.5 37q49 0 82.5 -32.5t33.5 -79.5q0 -30 -13 -55.5t-42 -51.5q19 -10 35 -15t29 -5q58 0 98.5 111.5t101.5 484.5l97 591h-205l12 76h209q50 267 198.5 405t387.5 138q154 0 247 -59t93 -154q0 -57 -38.5 -95t-97.5 -38q-52 0 -86 33t-34 84 q0 27 12 53.5t37 52.5q-28 21 -58.5 32t-62.5 11q-132 0 -207.5 -108.5t-114.5 -354.5h234q50 0 148 4.5t249 13.5l-116 -652l-3 -16q-16 -87 -16 -110q0 -29 14.5 -47t38.5 -18q42 0 81.5 59.5t78.5 177.5l80 -36q-51 -176 -132.5 -261.5t-199.5 -85.5q-112 0 -175.5 70 t-63.5 193q0 27 4.5 63.5t15.5 96.5l70 393q0 1 1 6q3 18 3 24q0 28 -18.5 38.5t-71.5 10.5h-230l-8 -58q-120 -850 -254 -1043q-60 -85 -142 -129.5t-177 -44.5q-107 0 -179.5 58t-72.5 140z" />
<glyph unicode="&#xfb02;" horiz-adv-x="1380" d="M-311 -205q0 55 36.5 92t90.5 37q49 0 82.5 -32.5t33.5 -79.5q0 -30 -13 -55.5t-42 -51.5q19 -10 35 -15t29 -5q58 0 98.5 111.5t101.5 484.5l97 591h-205l12 76h209q61 268 188 406.5t312 138.5q44 0 87.5 -11.5t90.5 -35.5q70 7 150.5 18.5t172.5 28.5l-202 -1179 q-2 -11 -6 -31q-13 -71 -13 -93q0 -30 14.5 -48.5t38.5 -18.5q42 0 81.5 59.5t76.5 177.5l82 -34q-51 -179 -132 -264t-200 -85q-111 0 -175 70.5t-64 194.5q0 24 4.5 62.5t13.5 94.5l82 473h-334l-8 -58q-120 -850 -254 -1043q-60 -85 -142 -129.5t-177 -44.5 q-107 0 -179.5 58t-72.5 140zM530 948h338l37 211q-54 2 -87.5 33.5t-33.5 81.5q0 29 14 55.5t42 50.5q-21 16 -43 23.5t-47 7.5q-87 0 -135.5 -99t-84.5 -364z" />
</font>
</defs>
</svg>
